<?xml version="1.0" encoding="utf-8"?>
<!-- Generator: Adobe Illustrator 17.0.0, SVG Export Plug-In . SVG Version: 6.00 Build 0)  -->
<!DOCTYPE svg PUBLIC "-//W3C//DTD SVG 1.1//EN" "http://www.w3.org/Graphics/SVG/1.1/DTD/svg11.dtd">
<svg version="1.1" xmlns="http://www.w3.org/2000/svg" xmlns:xlink="http://www.w3.org/1999/xlink" x="0px" y="0px" width="228px"
	 height="512.8px" viewBox="0 0 228 512.8" enable-background="new 0 0 228 512.8" xml:space="preserve">
<g id="Print">
</g>
<g id="Build_Help" display="none">
	<g display="inline">
	</g>
</g>
<g id="iPad">
</g>
<g id="Template_1_">
</g>
<g id="iPhone">
	<g id="Timeline_2_">
		
			<line fill="none" stroke="#D1D3D4" stroke-width="4.252" stroke-linecap="round" stroke-miterlimit="10" x1="204.7" y1="36.9" x2="204.7" y2="467.3"/>
		<circle fill="#D1D2D4" cx="204.7" cy="475.4" r="2.3"/>
		<circle fill="#D1D2D4" cx="204.8" cy="482.9" r="2.3"/>
		<circle fill="#D1D2D4" cx="204.7" cy="490.4" r="2.3"/>
	</g>
	<g id="Mixtable_2_">
		<g>
			
				<line fill="none" stroke="#414042" stroke-linecap="round" stroke-miterlimit="10" stroke-dasharray="2,3,2,3,2,3" x1="171.3" y1="426.9" x2="205" y2="426.9"/>
		</g>
		<g>
			<rect x="81.9" y="419.4" fill="none" width="84.9" height="13.4"/>
			<text transform="matrix(1 0 0 1 115.4293 429.8985)" fill="#4CBAC5" font-family="'Cabin-Medium'" font-size="14">Mixtable</text>
			<rect x="77.6" y="435.8" fill="none" width="89.2" height="15.9"/>
			<text transform="matrix(1 0 0 1 111.1913 441.0938)"><tspan x="0" y="0" fill="#414042" font-family="'Arvo'" font-size="7">UX/UI Designer,</tspan><tspan x="28.1" y="8.4" fill="#414042" font-family="'Arvo'" font-size="7">Munich</tspan></text>
			<rect x="130.9" y="454.6" fill="none" width="35.9" height="20.2"/>
			<text transform="matrix(1 0 0 1 145.5157 460.6368)" fill="#414042" font-family="'Cabin-Bold'" font-size="8">13’-14’</text>
		</g>
		<g>
			<g>
				<g>
					<path fill="#4CBAC5" d="M204.8,441c-7.8,0-14.1-6.3-14.1-14.1c0-7.8,6.3-14.1,14.1-14.1c7.8,0,14.1,6.3,14.1,14.1
						C219,434.7,212.6,441,204.8,441z"/>
				</g>
				<g>
					<g>
						<path fill="#FFFFFF" d="M204.8,413.8c7.2,0,13.1,5.9,13.1,13.1c0,7.2-5.9,13.1-13.1,13.1c-7.2,0-13.1-5.9-13.1-13.1
							C191.7,419.6,197.6,413.8,204.8,413.8 M204.8,411.7c-8.4,0-15.2,6.8-15.2,15.2c0,8.4,6.8,15.2,15.2,15.2
							c8.4,0,15.2-6.8,15.2-15.2C220,418.5,213.2,411.7,204.8,411.7L204.8,411.7z"/>
					</g>
				</g>
			</g>
			<g>
				<defs>
					<circle id="SVGID_61_" cx="204.8" cy="426.9" r="13.1"/>
				</defs>
				<clipPath id="SVGID_2_">
					<use xlink:href="#SVGID_61_"  overflow="visible"/>
				</clipPath>
				<g clip-path="url(#SVGID_2_)">
					<g>
						<path fill="#F1F2F2" d="M207.3,427.7h-5c-0.6,0-1.2-0.5-1.2-1.2v-2.8c0-0.6,0.5-1.2,1.2-1.2h5c0.6,0,1.2,0.5,1.2,1.2v2.8
							C208.5,427.1,207.9,427.7,207.3,427.7z M202.3,423.3c-0.2,0-0.4,0.2-0.4,0.4v2.8c0,0.2,0.2,0.4,0.4,0.4h5
							c0.2,0,0.4-0.2,0.4-0.4v-2.8c0-0.2-0.2-0.4-0.4-0.4H202.3z"/>
					</g>
					<g>
						<path fill-rule="evenodd" clip-rule="evenodd" fill="#4CBAC5" d="M215.6,439.1c0,0.8-0.6,1.4-1.4,1.4h-18.8
							c-0.8,0-1.4-0.6-1.4-1.4v-12.6c0-0.8,0.6-1.4,1.4-1.4h18.8c0.8,0,1.4,0.6,1.4,1.4V439.1z"/>
						<path fill="#F1F2F2" d="M214.2,440.8h-18.8c-0.9,0-1.7-0.8-1.7-1.7v-12.6c0-0.9,0.8-1.7,1.7-1.7h18.8c0.9,0,1.7,0.8,1.7,1.7
							v12.6C215.9,440,215.2,440.8,214.2,440.8z M195.4,425.4c-0.6,0-1.2,0.5-1.2,1.2v12.6c0,0.6,0.5,1.2,1.2,1.2h18.8
							c0.6,0,1.2-0.5,1.2-1.2v-12.6c0-0.6-0.5-1.2-1.2-1.2H195.4z"/>
					</g>
					<g>
						<line fill="#6DB6D5" x1="194" y1="429.1" x2="215.6" y2="429.1"/>
						<rect x="194" y="428.9" fill="#F1F2F2" width="21.6" height="0.5"/>
					</g>
					<g>
						<path fill="#F1F2F2" d="M207.3,429.9c0,0.2-0.2,0.4-0.4,0.4h-4c-0.2,0-0.4-0.2-0.4-0.4v-1.5c0-0.2,0.2-0.4,0.4-0.4h4
							c0.2,0,0.4,0.2,0.4,0.4V429.9z"/>
					</g>
				</g>
			</g>
		</g>
	</g>
	<g id="Brunel_2_">
		<g>
			
				<line fill="none" stroke="#414042" stroke-linecap="round" stroke-miterlimit="10" stroke-dasharray="2,3,2,3,2,3" x1="171.2" y1="371" x2="196.4" y2="371"/>
		</g>
		<g>
			<rect x="57.6" y="364.7" fill="none" width="109.1" height="13.4"/>
			<text transform="matrix(1 0 0 1 61.9093 375.1645)" fill="#993680" font-family="'Cabin-Medium'" font-size="14">Brunel University</text>
			<rect x="77.5" y="381" fill="none" width="89.2" height="15.9"/>
			<text transform="matrix(1 0 0 1 107.7224 386.3598)"><tspan x="0" y="0" fill="#414042" font-family="'Arvo'" font-size="7">Industrial Design </tspan><tspan x="0.2" y="8.4" fill="#414042" font-family="'Arvo'" font-size="7">&amp; Technology BA</tspan></text>
			<rect x="130.9" y="399.9" fill="none" width="35.9" height="20.2"/>
			<text transform="matrix(1 0 0 1 145.3428 405.9038)" fill="#414042" font-family="'Cabin-Bold'" font-size="8">11’- 15’</text>
		</g>
		<g>
			<g>
				<g>
					<path fill="#BA1D80" d="M204.6,378.7c-4.3,0-7.7-3.5-7.7-7.7s3.5-7.7,7.7-7.7s7.7,3.5,7.7,7.7S208.9,378.7,204.6,378.7z"/>
					<g>
						<path fill="#FFFFFF" d="M204.6,364.7c3.5,0,6.3,2.8,6.3,6.3c0,3.5-2.8,6.3-6.3,6.3c-3.5,0-6.3-2.8-6.3-6.3
							C198.3,367.5,201.1,364.7,204.6,364.7 M204.6,361.8c-5,0-9.2,4.1-9.2,9.1c0,5,4.1,9.2,9.2,9.2c5,0,9.1-4.1,9.1-9.2
							C213.8,365.9,209.6,361.8,204.6,361.8L204.6,361.8z"/>
					</g>
				</g>
			</g>
			<g>
				<g>
					<g>
						<path fill="#993680" d="M204.6,385.3c-7.9,0-14.3-6.4-14.3-14.3c0-7.9,6.4-14.3,14.3-14.3c7.9,0,14.3,6.4,14.3,14.3
							C218.9,378.9,212.5,385.3,204.6,385.3z"/>
					</g>
					<g>
						<path fill="#FFFFFF" d="M204.6,357.7c7.3,0,13.3,5.9,13.3,13.3c0,7.3-5.9,13.3-13.3,13.3c-7.3,0-13.3-5.9-13.3-13.3
							C191.3,363.7,197.3,357.7,204.6,357.7 M204.6,355.6c-8.5,0-15.4,6.9-15.4,15.4c0,8.5,6.9,15.4,15.4,15.4
							c8.5,0,15.4-6.9,15.4-15.4C220,362.5,213.1,355.6,204.6,355.6L204.6,355.6z"/>
					</g>
				</g>
				<g>
					<g>
						<path fill="#F1F2F2" d="M204.6,377.9c-3.6,0-6.7-1.9-6.7-3.5V369c0-0.2,0.2-0.4,0.4-0.4h12.6c0.2,0,0.4,0.2,0.4,0.4v5.3
							C211.3,375.9,208.2,377.9,204.6,377.9z M198.7,369.4v4.9c0,0.9,2.5,2.7,5.9,2.7c3.4,0,5.9-1.8,5.9-2.7v-4.9H198.7z"/>
					</g>
					<g>
						<line fill="#BA1D80" x1="197" y1="367.4" x2="197" y2="374.3"/>
						<path fill="#F1F2F2" d="M197,374.6c-0.2,0-0.3-0.1-0.3-0.3v-6.9c0-0.2,0.1-0.3,0.3-0.3c0.2,0,0.3,0.1,0.3,0.3v6.9
							C197.3,374.5,197.2,374.6,197,374.6z"/>
					</g>
					<g>
						<polygon fill="#993680" points="204.6,372.9 194.2,367.9 204.6,364.5 215,367.9 						"/>
						<path fill="#F1F2F2" d="M204.6,373.3c-0.1,0-0.1,0-0.2,0l-10.4-5c-0.1-0.1-0.2-0.2-0.2-0.4c0-0.2,0.1-0.3,0.3-0.4l10.4-3.4
							c0.1,0,0.2,0,0.2,0l10.4,3.4c0.2,0,0.3,0.2,0.3,0.4c0,0.2-0.1,0.3-0.2,0.4l-10.4,5C204.7,373.3,204.7,373.3,204.6,373.3z
							 M195.3,367.9l9.3,4.5l9.3-4.5l-9.3-3L195.3,367.9z"/>
					</g>
					<g>
						<line fill="#BA1D80" x1="204.5" y1="367.9" x2="197" y2="366.7"/>
						<path fill="#F1F2F2" d="M204.5,368.3C204.5,368.3,204.4,368.3,204.5,368.3l-7.5-1.2c-0.2,0-0.4-0.2-0.3-0.5
							c0-0.2,0.2-0.4,0.5-0.3l7.5,1.2c0.2,0,0.4,0.2,0.3,0.5C204.8,368.2,204.7,368.3,204.5,368.3z"/>
					</g>
				</g>
			</g>
		</g>
	</g>
	<g id="South_Africa_1_2_">
		<g>
			
				<line fill="none" stroke="#414042" stroke-linecap="round" stroke-miterlimit="10" stroke-dasharray="2,3,2,3,2,3" x1="171.2" y1="315.1" x2="204.7" y2="315.1"/>
		</g>
		<g>
			<g>
				<g>
					<path fill="#4CBAC5" d="M204.7,329.3c-7.8,0-14.1-6.3-14.1-14.1c0-7.8,6.3-14.1,14.1-14.1c7.8,0,14.1,6.3,14.1,14.1
						C218.9,322.9,212.5,329.3,204.7,329.3z"/>
				</g>
				<g>
					<g>
						<path fill="#FFFFFF" d="M204.7,302c7.2,0,13.1,5.9,13.1,13.1c0,7.2-5.9,13.1-13.1,13.1c-7.2,0-13.1-5.9-13.1-13.1
							C191.6,307.9,197.5,302,204.7,302 M204.7,299.9c-8.4,0-15.2,6.8-15.2,15.2c0,8.4,6.8,15.2,15.2,15.2c8.4,0,15.2-6.8,15.2-15.2
							C219.9,306.7,213.1,299.9,204.7,299.9L204.7,299.9z"/>
					</g>
				</g>
			</g>
			<g>
				<defs>
					<circle id="SVGID_63_" cx="204.7" cy="315.1" r="13.1"/>
				</defs>
				<clipPath id="SVGID_4_">
					<use xlink:href="#SVGID_63_"  overflow="visible"/>
				</clipPath>
				<g clip-path="url(#SVGID_4_)">
					<g>
						<path fill="#F1F2F2" d="M207.2,315.9h-5c-0.6,0-1.2-0.5-1.2-1.2v-2.8c0-0.6,0.5-1.2,1.2-1.2h5c0.6,0,1.2,0.5,1.2,1.2v2.8
							C208.4,315.4,207.9,315.9,207.2,315.9z M202.2,311.6c-0.2,0-0.4,0.2-0.4,0.4v2.8c0,0.2,0.2,0.4,0.4,0.4h5
							c0.2,0,0.4-0.2,0.4-0.4v-2.8c0-0.2-0.2-0.4-0.4-0.4H202.2z"/>
					</g>
					<g>
						<path fill-rule="evenodd" clip-rule="evenodd" fill="#4CBAC5" d="M215.6,327.3c0,0.8-0.6,1.4-1.4,1.4h-18.8
							c-0.8,0-1.4-0.6-1.4-1.4v-12.6c0-0.8,0.6-1.4,1.4-1.4h18.8c0.8,0,1.4,0.6,1.4,1.4V327.3z"/>
						<path fill="#F1F2F2" d="M214.1,329h-18.8c-0.9,0-1.7-0.8-1.7-1.7v-12.6c0-0.9,0.8-1.7,1.7-1.7h18.8c0.9,0,1.7,0.8,1.7,1.7
							v12.6C215.8,328.3,215.1,329,214.1,329z M195.3,313.6c-0.6,0-1.2,0.5-1.2,1.2v12.6c0,0.6,0.5,1.2,1.2,1.2h18.8
							c0.6,0,1.2-0.5,1.2-1.2v-12.6c0-0.6-0.5-1.2-1.2-1.2H195.3z"/>
					</g>
					<g>
						<line fill="#6DB6D5" x1="193.9" y1="317.4" x2="215.6" y2="317.4"/>
						<rect x="193.9" y="317.1" fill="#F1F2F2" width="21.6" height="0.5"/>
					</g>
					<g>
						<path fill="#F1F2F2" d="M207.2,318.2c0,0.2-0.2,0.4-0.4,0.4h-4c-0.2,0-0.4-0.2-0.4-0.4v-1.5c0-0.2,0.2-0.4,0.4-0.4h4
							c0.2,0,0.4,0.2,0.4,0.4V318.2z"/>
					</g>
				</g>
			</g>
		</g>
		<g>
			<rect x="81.8" y="308.4" fill="none" width="84.9" height="13.4"/>
			<text transform="matrix(1 0 0 1 93.5191 318.8982)" fill="#4CBAC5" font-family="'Cabin-Medium'" font-size="14">South Africa</text>
			<rect x="77.5" y="324.8" fill="none" width="89.2" height="15.9"/>
			<text transform="matrix(1 0 0 1 97.4167 330.0925)"><tspan x="0" y="0" fill="#414042" font-family="'Arvo'" font-size="7">Teaching secondary </tspan><tspan x="2.5" y="8.4" fill="#414042" font-family="'Arvo'" font-size="7">school age children</tspan></text>
			<rect x="130.9" y="343.6" fill="none" width="35.9" height="20.2"/>
			<text transform="matrix(1 0 0 1 155.0137 349.6365)" fill="#414042" font-family="'Cabin-Bold'" font-size="8">09’</text>
		</g>
	</g>
	<g id="Shaved_Head_2_">
		<g>
			
				<line fill="none" stroke="#414042" stroke-linecap="round" stroke-miterlimit="10" stroke-dasharray="2,3,2,3,2,3" x1="204.7" y1="259.7" x2="171.2" y2="259.7"/>
		</g>
		<g>
			<rect x="62.4" y="252.7" fill="none" width="104.3" height="13.4"/>
			<text transform="matrix(1 0 0 1 64.8985 263.2457)" fill="#4ABC94" font-family="'Cabin-Medium'" font-size="14">Shaved My Head</text>
			<rect x="77.5" y="269.1" fill="none" width="89.2" height="6.7"/>
			<text transform="matrix(1 0 0 1 118.6223 274.441)" fill="#414042" font-family="'Arvo'" font-size="7">Raising £900+</text>
			<rect x="130.9" y="279.1" fill="none" width="35.9" height="20.2"/>
			<text transform="matrix(1 0 0 1 155.024 285.067)" fill="#414042" font-family="'Cabin-Bold'" font-size="8">09’</text>
		</g>
		<g>
			<g>
				<g>
					<path fill="#4ABC94" d="M204.7,273.8c-7.7,0-14-6.3-14-14s6.3-14,14-14c7.7,0,14,6.3,14,14S212.5,273.8,204.7,273.8z"/>
				</g>
				<g>
					<g>
						<path fill="#FFFFFF" d="M204.7,246.8c7.2,0,13,5.8,13,13c0,7.2-5.8,13-13,13c-7.2,0-13-5.8-13-13
							C191.8,252.6,197.6,246.8,204.7,246.8 M204.7,244.7c-8.3,0-15.1,6.8-15.1,15.1c0,8.3,6.8,15.1,15.1,15.1
							c8.3,0,15.1-6.8,15.1-15.1C219.8,251.4,213.1,244.7,204.7,244.7L204.7,244.7z"/>
					</g>
				</g>
			</g>
			<g>
				<defs>
					<circle id="SVGID_65_" cx="204.7" cy="259.7" r="13"/>
				</defs>
				<clipPath id="SVGID_6_">
					<use xlink:href="#SVGID_65_"  overflow="visible"/>
				</clipPath>
				<g clip-path="url(#SVGID_6_)">
					<g>
						<path fill="#F1F2F2" d="M211.4,268h-26.1c-0.4,0-0.7-0.4-0.7-0.8v-14.7c0-0.4,0.3-0.8,0.7-0.8h26.1c0.4,0,0.7,0.4,0.7,0.8
							v14.7C212.1,267.7,211.8,268,211.4,268z M185.3,252.1c-0.2,0-0.4,0.2-0.4,0.4v14.7c0,0.2,0.2,0.4,0.4,0.4h26.1
							c0.2,0,0.4-0.2,0.4-0.4v-14.7c0-0.2-0.2-0.4-0.4-0.4H185.3z"/>
					</g>
					<g>
						<ellipse fill-rule="evenodd" clip-rule="evenodd" fill="#F1F2F2" cx="198.3" cy="259.9" rx="4.8" ry="6.1"/>
					</g>
					<g>
						<path fill="#4ABC94" d="M196.3,262.6c0.5-0.9,0.5-1.7,0.4-2.4h-0.4c-0.1,0-0.2-0.1-0.2-0.2v-0.1c0-0.1,0.1-0.2,0.2-0.2h0.3
							c-0.1-0.3-0.3-0.9-0.3-1.5c0-1.2,0.9-2,2-2c0.8,0,1.3,0.5,1.6,0.7c0.1,0.1,0.1,0.2,0,0.2l-0.3,0.4c-0.1,0.1-0.2,0.1-0.3,0
							c0,0-0.5-0.5-1-0.5c-0.6,0-1,0.4-1,1.1c0,0.6,0.3,1.2,0.3,1.5h1.3c0.1,0,0.2,0.1,0.2,0.2v0.1c0,0.1-0.1,0.2-0.2,0.2h-1.2
							c0.1,0.5,0.1,1.3-0.2,1.9h2.1c0.1,0,0.2,0.1,0.2,0.2v0.5c0,0.1-0.1,0.2-0.2,0.2h-3c-0.1,0-0.2-0.1-0.2-0.2V262.6z"/>
					</g>
				</g>
			</g>
		</g>
	</g>
	<g id="A_Level_2_">
		<g>
			
				<line fill="none" stroke="#414042" stroke-linecap="round" stroke-miterlimit="10" stroke-dasharray="2,3,2,3,2,3" x1="171.1" y1="204" x2="204.7" y2="204"/>
		</g>
		<g>
			<g>
				<rect x="81.8" y="197.1" fill="none" width="84.9" height="13.4"/>
				<text transform="matrix(1 0 0 1 121.882 207.5614)" fill="#993680" font-family="'Cabin-Medium'" font-size="14">A-level</text>
				<rect x="77.4" y="213.4" fill="none" width="89.2" height="15.9"/>
				<text transform="matrix(1 0 0 1 113.1974 218.7567)"><tspan x="0" y="0" fill="#414042" font-family="'Arvo'" font-size="7">Product design, </tspan><tspan x="-5.3" y="8.4" fill="#414042" font-family="'Arvo'" font-size="7">Photography, Art</tspan></text>
				<rect x="130.8" y="232.3" fill="none" width="35.9" height="20.2"/>
				<text transform="matrix(1 0 0 1 142.0406 238.2997)" fill="#414042" font-family="'Cabin-Bold'" font-size="8">08’- 11’</text>
			</g>
		</g>
		<g>
			<g>
				<g>
					<path fill="#993680" d="M204.9,218.3c-7.9,0-14.3-6.4-14.3-14.3c0-7.9,6.4-14.3,14.3-14.3c7.9,0,14.3,6.4,14.3,14.3
						C219.3,211.9,212.8,218.3,204.9,218.3z"/>
				</g>
				<g>
					<path fill="#FFFFFF" d="M204.9,190.7c7.3,0,13.3,5.9,13.3,13.3c0,7.3-5.9,13.3-13.3,13.3c-7.3,0-13.3-5.9-13.3-13.3
						C191.6,196.6,197.6,190.7,204.9,190.7 M204.9,188.6c-8.5,0-15.4,6.9-15.4,15.4c0,8.5,6.9,15.4,15.4,15.4
						c8.5,0,15.4-6.9,15.4-15.4C220.3,195.5,213.4,188.6,204.9,188.6L204.9,188.6z"/>
				</g>
			</g>
			<g>
				<g>
					<path fill="#F1F2F2" d="M204.9,210.8c-3.6,0-6.7-1.9-6.7-3.5V202c0-0.2,0.2-0.4,0.4-0.4h12.6c0.2,0,0.4,0.2,0.4,0.4v5.3
						C211.6,208.9,208.5,210.8,204.9,210.8z M199,202.4v4.9c0,0.9,2.5,2.7,5.9,2.7c3.4,0,5.9-1.8,5.9-2.7v-4.9H199z"/>
				</g>
				<g>
					<line fill="#BA1D80" x1="197.3" y1="200.3" x2="197.3" y2="207.2"/>
					<path fill="#F1F2F2" d="M197.3,207.6c-0.2,0-0.3-0.1-0.3-0.3v-6.9c0-0.2,0.1-0.3,0.3-0.3s0.3,0.1,0.3,0.3v6.9
						C197.6,207.4,197.5,207.6,197.3,207.6z"/>
				</g>
				<g>
					<polygon fill="#993680" points="204.9,205.9 194.5,200.8 204.9,197.5 215.3,200.8 					"/>
					<path fill="#F1F2F2" d="M204.9,206.3c-0.1,0-0.1,0-0.2,0l-10.4-5c-0.1-0.1-0.2-0.2-0.2-0.4c0-0.2,0.1-0.3,0.3-0.4l10.4-3.4
						c0.1,0,0.2,0,0.2,0l10.4,3.4c0.2,0,0.3,0.2,0.3,0.4c0,0.2-0.1,0.3-0.2,0.4l-10.4,5C205,206.3,205,206.3,204.9,206.3z
						 M195.6,200.9l9.3,4.5l9.3-4.5l-9.3-3L195.6,200.9z"/>
				</g>
				<g>
					<line fill="#BA1D80" x1="204.8" y1="200.9" x2="197.3" y2="199.7"/>
					<path fill="#F1F2F2" d="M204.8,201.3C204.8,201.3,204.7,201.3,204.8,201.3l-7.5-1.2c-0.2,0-0.4-0.2-0.3-0.5
						c0-0.2,0.2-0.4,0.5-0.3l7.5,1.2c0.2,0,0.4,0.2,0.3,0.5C205.2,201.2,205,201.3,204.8,201.3z"/>
				</g>
			</g>
		</g>
	</g>
	<g id="Soup_Dragon_2_">
		<g>
			
				<line fill="none" stroke="#414042" stroke-linecap="round" stroke-miterlimit="10" stroke-dasharray="2,3,2,3,2,3" x1="204.7" y1="148.2" x2="171.2" y2="148.2"/>
		</g>
		<g>
			<rect x="81.8" y="141" fill="none" width="84.9" height="13.4"/>
			<text transform="matrix(1 0 0 1 88.1707 151.5149)" fill="#4ABC94" font-family="'Cabin-Medium'" font-size="14">Soup Dragon</text>
			<rect x="77.5" y="157.4" fill="none" width="89.2" height="15.9"/>
			<text transform="matrix(1 0 0 1 80.2392 162.7102)"><tspan x="0" y="0" fill="#414042" font-family="'Arvo'" font-size="7">Traditional childrens  toy </tspan><tspan x="29.8" y="8.4" fill="#414042" font-family="'Arvo'" font-size="7">shop (Part Time) </tspan></text>
			<rect x="130.9" y="176.3" fill="none" width="35.9" height="20.2"/>
			<text transform="matrix(1 0 0 1 142.6467 182.2541)" fill="#414042" font-family="'Cabin-Bold'" font-size="8">05’- 11’</text>
		</g>
		<g>
			<g>
				<g>
					<path fill="#4ABC94" d="M204.6,162.2c-7.7,0-14-6.3-14-14c0-7.7,6.3-14,14-14c7.7,0,14,6.3,14,14
						C218.6,155.9,212.3,162.2,204.6,162.2z"/>
				</g>
				<g>
					<g>
						<path fill="#FFFFFF" d="M204.6,135.2c7.2,0,13,5.8,13,13c0,7.2-5.8,13-13,13c-7.2,0-13-5.8-13-13
							C191.6,141,197.5,135.2,204.6,135.2 M204.6,133.1c-8.3,0-15.1,6.8-15.1,15.1c0,8.3,6.8,15.1,15.1,15.1
							c8.3,0,15.1-6.8,15.1-15.1C219.7,139.9,212.9,133.1,204.6,133.1L204.6,133.1z"/>
					</g>
				</g>
			</g>
			<g>
				<defs>
					<circle id="SVGID_67_" cx="204.6" cy="148.2" r="13"/>
				</defs>
				<clipPath id="SVGID_8_">
					<use xlink:href="#SVGID_67_"  overflow="visible"/>
				</clipPath>
				<g clip-path="url(#SVGID_8_)">
					<g>
						<path fill="#F1F2F2" d="M211.2,156.5h-26.1c-0.4,0-0.7-0.4-0.7-0.8v-14.7c0-0.4,0.3-0.8,0.7-0.8h26.1c0.4,0,0.7,0.4,0.7,0.8
							v14.7C212,156.1,211.6,156.5,211.2,156.5z M185.1,140.5c-0.2,0-0.4,0.2-0.4,0.4v14.7c0,0.2,0.2,0.4,0.4,0.4h26.1
							c0.2,0,0.4-0.2,0.4-0.4v-14.7c0-0.2-0.2-0.4-0.4-0.4H185.1z"/>
					</g>
					<g>
						<ellipse fill-rule="evenodd" clip-rule="evenodd" fill="#F1F2F2" cx="198.2" cy="148.3" rx="4.8" ry="6.1"/>
					</g>
					<g>
						<path fill="#4ABC94" d="M196.2,151c0.5-0.9,0.5-1.7,0.4-2.4h-0.4c-0.1,0-0.2-0.1-0.2-0.2v-0.1c0-0.1,0.1-0.2,0.2-0.2h0.3
							c-0.1-0.3-0.3-0.9-0.3-1.5c0-1.2,0.9-2,2-2c0.8,0,1.3,0.5,1.6,0.7c0.1,0.1,0.1,0.2,0,0.2l-0.3,0.4c-0.1,0.1-0.2,0.1-0.3,0
							c0,0-0.5-0.5-1-0.5c-0.6,0-1,0.4-1,1.1c0,0.6,0.3,1.2,0.3,1.5h1.3c0.1,0,0.2,0.1,0.2,0.2v0.1c0,0.1-0.1,0.2-0.2,0.2h-1.2
							c0.1,0.5,0.1,1.3-0.2,1.9h2.1c0.1,0,0.2,0.1,0.2,0.2v0.5c0,0.1-0.1,0.2-0.2,0.2h-3c-0.1,0-0.2-0.1-0.2-0.2V151z"/>
					</g>
				</g>
			</g>
		</g>
	</g>
	<g id="GCSE_2_">
		<g>
			
				<line fill="none" stroke="#414042" stroke-linecap="round" stroke-miterlimit="10" stroke-dasharray="2,3,2,3,2,3" x1="171.2" y1="92.5" x2="204.7" y2="92.5"/>
		</g>
		<g>
			<rect x="81.8" y="86.6" fill="none" width="84.9" height="13.4"/>
			<text transform="matrix(1 0 0 1 130.7321 97.0721)" fill="#993680" font-family="'Cabin-Medium'" font-size="14">GCSE</text>
			<rect x="59.2" y="102.9" fill="none" width="107.5" height="15.9"/>
			<text transform="matrix(1 0 0 1 72.6475 108.2674)"><tspan x="0" y="0" fill="#414042" font-family="'Arvo'" font-size="7">Standard Subjects + Drama, </tspan><tspan x="-1" y="8.4" fill="#414042" font-family="'Arvo'" font-size="7">Product Design, Art, French</tspan></text>
			<rect x="130.9" y="121.8" fill="none" width="35.9" height="20.2"/>
			<text transform="matrix(1 0 0 1 137.7334 127.8114)" fill="#414042" font-family="'Cabin-Bold'" font-size="8">04’- 08’</text>
		</g>
		<g>
			<g>
				<g>
					<path fill="#993680" d="M204.7,106.8c-7.9,0-14.3-6.4-14.3-14.3c0-7.9,6.4-14.3,14.3-14.3c7.9,0,14.3,6.4,14.3,14.3
						C219.1,100.4,212.6,106.8,204.7,106.8z"/>
				</g>
				<g>
					<path fill="#FFFFFF" d="M204.7,79.2c7.3,0,13.3,5.9,13.3,13.3c0,7.3-5.9,13.3-13.3,13.3c-7.3,0-13.3-5.9-13.3-13.3
						C191.5,85.1,197.4,79.2,204.7,79.2 M204.7,77.1c-8.5,0-15.4,6.9-15.4,15.4c0,8.5,6.9,15.4,15.4,15.4c8.5,0,15.4-6.9,15.4-15.4
						C220.1,84,213.2,77.1,204.7,77.1L204.7,77.1z"/>
				</g>
			</g>
			<g>
				<g>
					<path fill="#F1F2F2" d="M204.7,99.4c-3.6,0-6.7-1.9-6.7-3.5v-5.3c0-0.2,0.2-0.4,0.4-0.4H211c0.2,0,0.4,0.2,0.4,0.4v5.3
						C211.4,97.4,208.3,99.4,204.7,99.4z M198.8,90.9v4.9c0,0.9,2.5,2.7,5.9,2.7c3.4,0,5.9-1.8,5.9-2.7v-4.9H198.8z"/>
				</g>
				<g>
					<line fill="#BA1D80" x1="197.1" y1="88.8" x2="197.1" y2="95.8"/>
					<path fill="#F1F2F2" d="M197.1,96.1c-0.2,0-0.3-0.1-0.3-0.3v-6.9c0-0.2,0.1-0.3,0.3-0.3c0.2,0,0.3,0.1,0.3,0.3v6.9
						C197.5,95.9,197.3,96.1,197.1,96.1z"/>
				</g>
				<g>
					<polygon fill="#993680" points="204.7,94.4 194.3,89.3 204.7,86 215.1,89.3 					"/>
					<path fill="#F1F2F2" d="M204.7,94.8c-0.1,0-0.1,0-0.2,0l-10.4-5c-0.1-0.1-0.2-0.2-0.2-0.4c0-0.2,0.1-0.3,0.3-0.4l10.4-3.4
						c0.1,0,0.2,0,0.2,0l10.4,3.4c0.2,0,0.3,0.2,0.3,0.4c0,0.2-0.1,0.3-0.2,0.4l-10.4,5C204.9,94.8,204.8,94.8,204.7,94.8z
						 M195.4,89.4l9.3,4.5l9.3-4.5l-9.3-3L195.4,89.4z"/>
				</g>
				<g>
					<line fill="#BA1D80" x1="204.6" y1="89.4" x2="197.1" y2="88.2"/>
					<path fill="#F1F2F2" d="M204.6,89.8C204.6,89.8,204.6,89.8,204.6,89.8l-7.5-1.2c-0.2,0-0.4-0.2-0.3-0.5c0-0.2,0.2-0.4,0.5-0.3
						l7.5,1.2c0.2,0,0.4,0.2,0.3,0.5C205,89.7,204.8,89.8,204.6,89.8z"/>
				</g>
			</g>
		</g>
	</g>
	<g id="Toy_Shop_2_">
		<g>
			
				<line fill="none" stroke="#414042" stroke-linecap="round" stroke-miterlimit="10" stroke-dasharray="2,3,2,3,2,3" x1="204.7" y1="36.9" x2="170.9" y2="36.9"/>
		</g>
		<g>
			<rect x="59.2" y="45.8" fill="none" width="107.5" height="7.9"/>
			<text transform="matrix(1 0 0 1 63.448 51.0948)" fill="#414042" font-family="'Arvo'" font-size="7">&amp; lived above it most of my life</text>
			<rect x="37" y="29.9" fill="none" width="129.8" height="13.4"/>
			<text transform="matrix(1 0 0 1 41.1723 40.4058)" fill="#4CBAC5" font-family="'Cabin-Medium'" font-size="14">Born into a Toy Shop</text>
			<rect x="130.9" y="55.9" fill="none" width="35.9" height="20.2"/>
			<text transform="matrix(1 0 0 1 156.4979 61.8507)" fill="#414042" font-family="'Cabin-Bold'" font-size="8">92’</text>
		</g>
		<g>
			<g>
				<g>
					<path fill="#4CBAC5" d="M204.9,50.7c-7.8,0-14.1-6.3-14.1-14.1c0-7.8,6.3-14.1,14.1-14.1c7.8,0,14.1,6.3,14.1,14.1
						C219.1,44.4,212.7,50.7,204.9,50.7z"/>
				</g>
				<g>
					<g>
						<path fill="#FFFFFF" d="M204.9,23.5c7.2,0,13.1,5.9,13.1,13.1c0,7.2-5.9,13.1-13.1,13.1c-7.2,0-13.1-5.9-13.1-13.1
							C191.8,29.4,197.7,23.5,204.9,23.5 M204.9,21.4c-8.4,0-15.2,6.8-15.2,15.2c0,8.4,6.8,15.2,15.2,15.2c8.4,0,15.2-6.8,15.2-15.2
							C220.1,28.2,213.3,21.4,204.9,21.4L204.9,21.4z"/>
					</g>
				</g>
			</g>
			<g>
				<defs>
					<circle id="SVGID_69_" cx="204.9" cy="36.6" r="13.1"/>
				</defs>
				<clipPath id="SVGID_10_">
					<use xlink:href="#SVGID_69_"  overflow="visible"/>
				</clipPath>
				<g clip-path="url(#SVGID_10_)">
					<g>
						<path fill="#F1F2F2" d="M207.4,37.4h-5c-0.6,0-1.2-0.5-1.2-1.2v-2.8c0-0.6,0.5-1.2,1.2-1.2h5c0.6,0,1.2,0.5,1.2,1.2v2.8
							C208.5,36.9,208,37.4,207.4,37.4z M202.4,33c-0.2,0-0.4,0.2-0.4,0.4v2.8c0,0.2,0.2,0.4,0.4,0.4h5c0.2,0,0.4-0.2,0.4-0.4v-2.8
							c0-0.2-0.2-0.4-0.4-0.4H202.4z"/>
					</g>
					<g>
						<path fill-rule="evenodd" clip-rule="evenodd" fill="#4CBAC5" d="M215.7,48.8c0,0.8-0.6,1.4-1.4,1.4h-18.8
							c-0.8,0-1.4-0.6-1.4-1.4V36.2c0-0.8,0.6-1.4,1.4-1.4h18.8c0.8,0,1.4,0.6,1.4,1.4V48.8z"/>
						<path fill="#F1F2F2" d="M214.3,50.5h-18.8c-0.9,0-1.7-0.8-1.7-1.7V36.2c0-0.9,0.8-1.7,1.7-1.7h18.8c0.9,0,1.7,0.8,1.7,1.7
							v12.6C216,49.7,215.2,50.5,214.3,50.5z M195.5,35.1c-0.6,0-1.2,0.5-1.2,1.2v12.6c0,0.6,0.5,1.2,1.2,1.2h18.8
							c0.6,0,1.2-0.5,1.2-1.2V36.2c0-0.6-0.5-1.2-1.2-1.2H195.5z"/>
					</g>
					<g>
						<line fill="#6DB6D5" x1="194.1" y1="38.9" x2="215.7" y2="38.9"/>
						<rect x="194.1" y="38.6" fill="#F1F2F2" width="21.6" height="0.5"/>
					</g>
					<g>
						<path fill="#F1F2F2" d="M207.3,39.7c0,0.2-0.2,0.4-0.4,0.4h-4c-0.2,0-0.4-0.2-0.4-0.4v-1.5c0-0.2,0.2-0.4,0.4-0.4h4
							c0.2,0,0.4,0.2,0.4,0.4V39.7z"/>
					</g>
				</g>
			</g>
		</g>
	</g>
</g>
</svg>
