<?xml version="1.0" encoding="utf-8"?>
<!-- Generator: Adobe Illustrator 17.0.0, SVG Export Plug-In . SVG Version: 6.00 Build 0)  -->
<!DOCTYPE svg PUBLIC "-//W3C//DTD SVG 1.1//EN" "http://www.w3.org/Graphics/SVG/1.1/DTD/svg11.dtd">
<svg version="1.1" xmlns="http://www.w3.org/2000/svg" xmlns:xlink="http://www.w3.org/1999/xlink" x="0px" y="0px" width="830.3px"
	 height="373.2px" viewBox="0 0 830.3 373.2" enable-background="new 0 0 830.3 373.2" xml:space="preserve">
<g id="Print">
	<g id="Key_1_">
		<g>
			<g>
				<g>
					<g>
						<path fill="#4ABC94" d="M802.5,60.5c-7.7,0-14-6.3-14-14s6.3-14,14-14c7.7,0,14,6.3,14,14S810.3,60.5,802.5,60.5z"/>
					</g>
					<g>
						<g>
							<path fill="#FFFFFF" d="M802.5,33.5c7.2,0,13,5.8,13,13c0,7.2-5.8,13-13,13s-13-5.8-13-13C789.6,39.3,795.4,33.5,802.5,33.5
								 M802.5,31.4c-8.3,0-15.1,6.8-15.1,15.1c0,8.3,6.8,15.1,15.1,15.1c8.3,0,15.1-6.8,15.1-15.1
								C817.6,38.1,810.9,31.4,802.5,31.4L802.5,31.4z"/>
						</g>
					</g>
				</g>
				<g>
					<defs>
						<circle id="SVGID_1_" cx="802.5" cy="46.4" r="13"/>
					</defs>
					<clipPath id="SVGID_2_">
						<use xlink:href="#SVGID_1_"  overflow="visible"/>
					</clipPath>
					<g clip-path="url(#SVGID_2_)">
						<g>
							<path fill="#F1F2F2" d="M809.2,54.7h-26.1c-0.4,0-0.7-0.4-0.7-0.8V39.2c0-0.4,0.3-0.8,0.7-0.8h26.1c0.4,0,0.7,0.4,0.7,0.8
								v14.7C809.9,54.4,809.6,54.7,809.2,54.7z M783.1,38.8c-0.2,0-0.4,0.2-0.4,0.4v14.7c0,0.2,0.2,0.4,0.4,0.4h26.1
								c0.2,0,0.4-0.2,0.4-0.4V39.2c0-0.2-0.2-0.4-0.4-0.4H783.1z"/>
						</g>
						<g>
							<ellipse fill-rule="evenodd" clip-rule="evenodd" fill="#F1F2F2" cx="796.1" cy="46.6" rx="4.8" ry="6.1"/>
						</g>
						<g>
							<path fill="#4ABC94" d="M794.1,49.3c0.5-0.9,0.5-1.7,0.4-2.4h-0.4c-0.1,0-0.2-0.1-0.2-0.2v-0.1c0-0.1,0.1-0.2,0.2-0.2h0.3
								c-0.1-0.3-0.3-0.9-0.3-1.5c0-1.2,0.9-2,2-2c0.8,0,1.3,0.5,1.6,0.7c0.1,0.1,0.1,0.2,0,0.2l-0.3,0.4c-0.1,0.1-0.2,0.1-0.3,0
								c0,0-0.5-0.5-1-0.5c-0.6,0-1,0.4-1,1.1c0,0.6,0.3,1.2,0.3,1.5h1.3c0.1,0,0.2,0.1,0.2,0.2v0.1c0,0.1-0.1,0.2-0.2,0.2h-1.2
								c0.1,0.5,0.1,1.3-0.2,1.9h2.1c0.1,0,0.2,0.1,0.2,0.2v0.5c0,0.1-0.1,0.2-0.2,0.2h-3c-0.1,0-0.2-0.1-0.2-0.2V49.3z"/>
						</g>
					</g>
				</g>
			</g>
			<g>
				<rect x="740.8" y="40.3" fill="none" width="42.9" height="12.2"/>
				<text transform="matrix(1 0 0 1 742.2753 50.8235)" fill="#4ABC94" font-family="'Cabin-Medium'" font-size="14">Money</text>
			</g>
		</g>
		<g>
			<g>
				<g>
					<g>
						<path fill="#993680" d="M599.6,61c-7.9,0-14.3-6.4-14.3-14.3c0-7.9,6.4-14.3,14.3-14.3c7.9,0,14.3,6.4,14.3,14.3
							C613.9,54.5,607.5,61,599.6,61z"/>
					</g>
					<g>
						<path fill="#FFFFFF" d="M599.6,33.3c7.3,0,13.3,5.9,13.3,13.3c0,7.3-5.9,13.3-13.3,13.3c-7.3,0-13.3-5.9-13.3-13.3
							C586.3,39.3,592.2,33.3,599.6,33.3 M599.6,31.2c-8.5,0-15.4,6.9-15.4,15.4c0,8.5,6.9,15.4,15.4,15.4c8.5,0,15.4-6.9,15.4-15.4
							C614.9,38.1,608,31.2,599.6,31.2L599.6,31.2z"/>
					</g>
				</g>
				<g>
					<g>
						<path fill="#F1F2F2" d="M599.5,53.5c-3.6,0-6.7-1.9-6.7-3.5v-5.3c0-0.2,0.2-0.4,0.4-0.4h12.6c0.2,0,0.4,0.2,0.4,0.4V50
							C606.2,51.6,603.2,53.5,599.5,53.5z M593.7,45V50c0,0.9,2.5,2.7,5.9,2.7c3.4,0,5.9-1.8,5.9-2.7V45H593.7z"/>
					</g>
					<g>
						<line fill="#BA1D80" x1="592" y1="43" x2="592" y2="49.9"/>
						<path fill="#F1F2F2" d="M592,50.2c-0.2,0-0.3-0.1-0.3-0.3V43c0-0.2,0.1-0.3,0.3-0.3c0.2,0,0.3,0.1,0.3,0.3v6.9
							C592.3,50.1,592.1,50.2,592,50.2z"/>
					</g>
					<g>
						<polygon fill="#993680" points="599.5,48.5 589.2,43.5 599.5,40.1 609.9,43.5 						"/>
						<path fill="#F1F2F2" d="M599.5,48.9c-0.1,0-0.1,0-0.2,0l-10.4-5c-0.1-0.1-0.2-0.2-0.2-0.4c0-0.2,0.1-0.3,0.3-0.4l10.4-3.4
							c0.1,0,0.2,0,0.2,0l10.4,3.4c0.2,0,0.3,0.2,0.3,0.4c0,0.2-0.1,0.3-0.2,0.4l-10.4,5C599.7,48.9,599.6,48.9,599.5,48.9z
							 M590.2,43.6l9.3,4.5l9.3-4.5l-9.3-3L590.2,43.6z"/>
					</g>
					<g>
						<line fill="#BA1D80" x1="599.4" y1="43.6" x2="592" y2="42.3"/>
						<path fill="#F1F2F2" d="M599.4,44C599.4,44,599.4,44,599.4,44l-7.5-1.2c-0.2,0-0.4-0.2-0.3-0.5c0-0.2,0.2-0.4,0.5-0.3l7.5,1.2
							c0.2,0,0.4,0.2,0.3,0.5C599.8,43.8,599.6,44,599.4,44z"/>
					</g>
				</g>
			</g>
			<g>
				<rect x="516.7" y="41.1" fill="none" width="64" height="11"/>
				<text transform="matrix(1 0 0 1 518.9734 51.5967)" fill="#993680" font-family="'Cabin-Medium'" font-size="14">Education</text>
			</g>
		</g>
		<g>
			<g>
				<g>
					<g>
						<path fill="#4CBAC5" d="M711,60.6c-7.8,0-14.1-6.3-14.1-14.1c0-7.8,6.3-14.1,14.1-14.1c7.8,0,14.1,6.3,14.1,14.1
							C725.1,54.2,718.8,60.6,711,60.6z"/>
					</g>
					<g>
						<g>
							<path fill="#FFFFFF" d="M711,33.3c7.2,0,13.1,5.9,13.1,13.1c0,7.2-5.9,13.1-13.1,13.1c-7.2,0-13.1-5.9-13.1-13.1
								C697.8,39.2,703.7,33.3,711,33.3 M711,31.3c-8.4,0-15.2,6.8-15.2,15.2c0,8.4,6.8,15.2,15.2,15.2c8.4,0,15.2-6.8,15.2-15.2
								C726.1,38.1,719.3,31.3,711,31.3L711,31.3z"/>
						</g>
					</g>
				</g>
				<g>
					<defs>
						<circle id="SVGID_3_" cx="711" cy="46.4" r="13.1"/>
					</defs>
					<clipPath id="SVGID_4_">
						<use xlink:href="#SVGID_3_"  overflow="visible"/>
					</clipPath>
					<g clip-path="url(#SVGID_4_)">
						<g>
							<path fill="#F1F2F2" d="M713.4,47.2h-5c-0.6,0-1.2-0.5-1.2-1.2v-2.8c0-0.6,0.5-1.2,1.2-1.2h5c0.6,0,1.2,0.5,1.2,1.2v2.8
								C714.6,46.7,714.1,47.2,713.4,47.2z M708.5,42.9c-0.2,0-0.4,0.2-0.4,0.4v2.8c0,0.2,0.2,0.4,0.4,0.4h5c0.2,0,0.4-0.2,0.4-0.4
								v-2.8c0-0.2-0.2-0.4-0.4-0.4H708.5z"/>
						</g>
						<g>
							<path fill-rule="evenodd" clip-rule="evenodd" fill="#4CBAC5" d="M721.8,58.7c0,0.8-0.6,1.4-1.4,1.4h-18.8
								c-0.8,0-1.4-0.6-1.4-1.4V46.1c0-0.8,0.6-1.4,1.4-1.4h18.8c0.8,0,1.4,0.6,1.4,1.4V58.7z"/>
							<path fill="#F1F2F2" d="M720.4,60.3h-18.8c-0.9,0-1.7-0.8-1.7-1.7V46.1c0-0.9,0.8-1.7,1.7-1.7h18.8c0.9,0,1.7,0.8,1.7,1.7
								v12.6C722,59.6,721.3,60.3,720.4,60.3z M701.5,44.9c-0.6,0-1.2,0.5-1.2,1.2v12.6c0,0.6,0.5,1.2,1.2,1.2h18.8
								c0.6,0,1.2-0.5,1.2-1.2V46.1c0-0.6-0.5-1.2-1.2-1.2H701.5z"/>
						</g>
						<g>
							<line fill="#6DB6D5" x1="700.1" y1="48.7" x2="721.8" y2="48.7"/>
							<rect x="700.1" y="48.5" fill="#F1F2F2" width="21.6" height="0.5"/>
						</g>
						<g>
							<path fill="#F1F2F2" d="M713.4,49.5c0,0.2-0.2,0.4-0.4,0.4h-4c-0.2,0-0.4-0.2-0.4-0.4V48c0-0.2,0.2-0.4,0.4-0.4h4
								c0.2,0,0.4,0.2,0.4,0.4V49.5z"/>
						</g>
					</g>
				</g>
			</g>
			<rect x="623.1" y="40.3" fill="none" width="69" height="12.3"/>
			<text transform="matrix(1 0 0 1 626.2845 50.7749)" fill="#4CBAC5" font-family="'Cabin-Medium'" font-size="14">Experience</text>
		</g>
	</g>
	<g id="Timeline_1_">
		
			<line fill="none" stroke="#D1D3D4" stroke-width="4.252" stroke-linecap="round" stroke-miterlimit="10" x1="26.8" y1="226.1" x2="791.7" y2="226.1"/>
		<circle fill="#D1D2D4" cx="798.5" cy="226.1" r="2.3"/>
		<circle fill="#D1D2D4" cx="806.1" cy="226.1" r="2.3"/>
		<circle fill="#D1D2D4" cx="813.6" cy="226.1" r="2.3"/>
	</g>
	<g id="Kennedys_1_">
		<g>
			<g>
				<path fill="#8DC63F" d="M690.5,233.8c-4.3,0-7.7-3.5-7.7-7.7s3.5-7.7,7.7-7.7s7.7,3.5,7.7,7.7S694.8,233.8,690.5,233.8z"/>
				<g>
					<path fill="#FFFFFF" d="M690.5,219.8c3.5,0,6.3,2.8,6.3,6.3c0,3.5-2.8,6.3-6.3,6.3c-3.5,0-6.3-2.8-6.3-6.3
						C684.2,222.6,687,219.8,690.5,219.8 M690.5,217c-5,0-9.2,4.1-9.2,9.1c0,5,4.1,9.2,9.2,9.2c5,0,9.1-4.1,9.1-9.2
						C699.6,221.1,695.5,217,690.5,217L690.5,217z"/>
				</g>
			</g>
		</g>
		<g>
			
				<line fill="none" stroke="#414042" stroke-linecap="round" stroke-miterlimit="10" stroke-dasharray="2,3,2,3,2,3" x1="690.5" y1="216.3" x2="690.5" y2="111.4"/>
		</g>
		<g>
			<rect x="581.6" y="115.3" fill="none" width="104.3" height="13.4"/>
			<text transform="matrix(1 0 0 1 601.1503 125.7832)" fill="#4ABC94" font-family="'Cabin-Medium'" font-size="14">Kennedy’s Bar</text>
			<rect x="596.7" y="131.7" fill="none" width="89.2" height="14.6"/>
			<text transform="matrix(1 0 0 1 611.9034 136.9785)"><tspan x="0" y="0" fill="#414042" font-family="'Arvo'" font-size="7">Glassie in an Irish bar</tspan><tspan x="17.8" y="8.4" fill="#414042" font-family="'Arvo'" font-size="7">while in Munich</tspan></text>
			<rect x="650.1" y="150.4" fill="none" width="35.9" height="20.2"/>
			<text transform="matrix(1 0 0 1 664.6399 156.4023)" fill="#414042" font-family="'Cabin-Bold'" font-size="8">13’-14’</text>
		</g>
		<g>
			<g>
				<g>
					<path fill="#4ABC94" d="M690.5,240.1c-7.7,0-14-6.3-14-14c0-7.7,6.3-14,14-14c7.7,0,14,6.3,14,14
						C704.5,233.9,698.2,240.1,690.5,240.1z"/>
				</g>
				<g>
					<g>
						<path fill="#FFFFFF" d="M690.5,213.2c7.2,0,13,5.8,13,13c0,7.2-5.8,13-13,13c-7.2,0-13-5.8-13-13
							C677.5,219,683.3,213.2,690.5,213.2 M690.5,211c-8.3,0-15.1,6.8-15.1,15.1c0,8.3,6.8,15.1,15.1,15.1c8.3,0,15.1-6.8,15.1-15.1
							C705.6,217.8,698.8,211,690.5,211L690.5,211z"/>
					</g>
				</g>
			</g>
			<g>
				<defs>
					<circle id="SVGID_5_" cx="690.5" cy="226.1" r="13"/>
				</defs>
				<clipPath id="SVGID_6_">
					<use xlink:href="#SVGID_5_"  overflow="visible"/>
				</clipPath>
				<g clip-path="url(#SVGID_6_)">
					<g>
						<path fill="#F1F2F2" d="M697.1,234.4H671c-0.4,0-0.7-0.4-0.7-0.8v-14.7c0-0.4,0.3-0.8,0.7-0.8h26.1c0.4,0,0.7,0.4,0.7,0.8
							v14.7C697.8,234,697.5,234.4,697.1,234.4z M671,218.4c-0.2,0-0.4,0.2-0.4,0.4v14.7c0,0.2,0.2,0.4,0.4,0.4h26.1
							c0.2,0,0.4-0.2,0.4-0.4v-14.7c0-0.2-0.2-0.4-0.4-0.4H671z"/>
					</g>
					<g>
						<ellipse fill-rule="evenodd" clip-rule="evenodd" fill="#F1F2F2" cx="684.1" cy="226.2" rx="4.8" ry="6.1"/>
					</g>
					<g>
						<path fill="#4ABC94" d="M682.1,229c0.5-0.9,0.5-1.7,0.4-2.4H682c-0.1,0-0.2-0.1-0.2-0.2v-0.1c0-0.1,0.1-0.2,0.2-0.2h0.3
							c-0.1-0.3-0.3-0.9-0.3-1.5c0-1.2,0.9-2,2-2c0.8,0,1.3,0.5,1.6,0.7c0.1,0.1,0.1,0.2,0,0.2l-0.3,0.4c-0.1,0.1-0.2,0.1-0.3,0
							c0,0-0.5-0.5-1-0.5c-0.6,0-1,0.4-1,1.1c0,0.6,0.3,1.2,0.3,1.5h1.3c0.1,0,0.2,0.1,0.2,0.2v0.1c0,0.1-0.1,0.2-0.2,0.2h-1.2
							c0.1,0.5,0.1,1.3-0.2,1.9h2.1c0.1,0,0.2,0.1,0.2,0.2v0.5c0,0.1-0.1,0.2-0.2,0.2h-3c-0.1,0-0.2-0.1-0.2-0.2V229z"/>
					</g>
				</g>
			</g>
		</g>
	</g>
	<g id="Mixtable_1_">
		<g>
			<g>
				
					<line fill="none" stroke="#414042" stroke-linecap="round" stroke-miterlimit="10" stroke-dasharray="2,3,2,3,2,3" x1="756.8" y1="226.9" x2="756.8" y2="114.4"/>
			</g>
			<g>
				<rect x="761.3" y="115.1" fill="none" width="84.9" height="13.4"/>
				<text transform="matrix(1 0 0 1 761.3369 125.5801)" fill="#4CBAC5" font-family="'Cabin-Medium'" font-size="14">Mixtable</text>
				<rect x="761.3" y="131.5" fill="none" width="89.2" height="15.9"/>
				<text transform="matrix(1 0 0 1 761.3372 136.7754)"><tspan x="0" y="0" fill="#414042" font-family="'Arvo'" font-size="7">UX/UI Designer,</tspan><tspan x="0" y="8.4" fill="#414042" font-family="'Arvo'" font-size="7">Munich</tspan></text>
				<rect x="761.3" y="150.3" fill="none" width="35.9" height="20.2"/>
				<text transform="matrix(1 0 0 1 761.3374 156.3184)" fill="#414042" font-family="'Cabin-Bold'" font-size="8">13’-14’</text>
			</g>
		</g>
		<g>
			<g>
				<g>
					<path fill="#4CBAC5" d="M756.8,240.3c-7.8,0-14.1-6.3-14.1-14.1c0-7.8,6.3-14.1,14.1-14.1c7.8,0,14.1,6.3,14.1,14.1
						C771,233.9,764.6,240.3,756.8,240.3z"/>
				</g>
				<g>
					<g>
						<path fill="#FFFFFF" d="M756.8,213c7.2,0,13.1,5.9,13.1,13.1c0,7.2-5.9,13.1-13.1,13.1c-7.2,0-13.1-5.9-13.1-13.1
							C743.7,218.9,749.6,213,756.8,213 M756.8,210.9c-8.4,0-15.2,6.8-15.2,15.2c0,8.4,6.8,15.2,15.2,15.2c8.4,0,15.2-6.8,15.2-15.2
							C772,217.7,765.2,210.9,756.8,210.9L756.8,210.9z"/>
					</g>
				</g>
			</g>
			<g>
				<defs>
					<circle id="SVGID_7_" cx="756.8" cy="226.1" r="13.1"/>
				</defs>
				<clipPath id="SVGID_8_">
					<use xlink:href="#SVGID_7_"  overflow="visible"/>
				</clipPath>
				<g clip-path="url(#SVGID_8_)">
					<g>
						<path fill="#F1F2F2" d="M759.3,226.9h-5c-0.6,0-1.2-0.5-1.2-1.2v-2.8c0-0.6,0.5-1.2,1.2-1.2h5c0.6,0,1.2,0.5,1.2,1.2v2.8
							C760.5,226.4,760,226.9,759.3,226.9z M754.3,222.6c-0.2,0-0.4,0.2-0.4,0.4v2.8c0,0.2,0.2,0.4,0.4,0.4h5c0.2,0,0.4-0.2,0.4-0.4
							v-2.8c0-0.2-0.2-0.4-0.4-0.4H754.3z"/>
					</g>
					<g>
						<path fill-rule="evenodd" clip-rule="evenodd" fill="#4CBAC5" d="M767.7,238.3c0,0.8-0.6,1.4-1.4,1.4h-18.8
							c-0.8,0-1.4-0.6-1.4-1.4v-12.6c0-0.8,0.6-1.4,1.4-1.4h18.8c0.8,0,1.4,0.6,1.4,1.4V238.3z"/>
						<path fill="#F1F2F2" d="M766.2,240h-18.8c-0.9,0-1.7-0.8-1.7-1.7v-12.6c0-0.9,0.8-1.7,1.7-1.7h18.8c0.9,0,1.7,0.8,1.7,1.7
							v12.6C767.9,239.3,767.2,240,766.2,240z M747.4,224.6c-0.6,0-1.2,0.5-1.2,1.2v12.6c0,0.6,0.5,1.2,1.2,1.2h18.8
							c0.6,0,1.2-0.5,1.2-1.2v-12.6c0-0.6-0.5-1.2-1.2-1.2H747.4z"/>
					</g>
					<g>
						<line fill="#6DB6D5" x1="746" y1="228.4" x2="767.7" y2="228.4"/>
						<rect x="746" y="228.1" fill="#F1F2F2" width="21.6" height="0.5"/>
					</g>
					<g>
						<path fill="#F1F2F2" d="M759.3,229.2c0,0.2-0.2,0.4-0.4,0.4h-4c-0.2,0-0.4-0.2-0.4-0.4v-1.5c0-0.2,0.2-0.4,0.4-0.4h4
							c0.2,0,0.4,0.2,0.4,0.4V229.2z"/>
					</g>
				</g>
			</g>
		</g>
	</g>
	<g id="South_Africa_2_1_">
		<g>
			
				<line fill="none" stroke="#414042" stroke-linecap="round" stroke-miterlimit="10" stroke-dasharray="2,3,2,3,2,3" x1="566.6" y1="231.7" x2="566.6" y2="90.8"/>
		</g>
		<rect x="458.3" y="90.2" fill="none" width="103.8" height="13.5"/>
		<text transform="matrix(1 0 0 1 488.9005 100.6953)" fill="#4CBAC5" font-family="'Cabin-Medium'" font-size="14">South Africa</text>
		<rect x="455.8" y="106.7" fill="none" width="106.3" height="15.9"/>
		<text transform="matrix(1 0 0 1 476.1458 112.0098)"><tspan x="0" y="0" fill="#414042" font-family="'Arvo'" font-size="7">Odd-job charity work in a </tspan><tspan x="11.1" y="8.4" fill="#414042" font-family="'Arvo'" font-size="7">township community. </tspan></text>
		<rect x="526.2" y="125.6" fill="none" width="35.9" height="20.2"/>
		<text transform="matrix(1 0 0 1 554.652 131.5537)" fill="#414042" font-family="'Cabin-Bold'" font-size="8">11’</text>
		<g>
			<g>
				<path fill="#4CBAC5" d="M566.6,240.3c-7.8,0-14.1-6.3-14.1-14.1c0-7.8,6.3-14.1,14.1-14.1c7.8,0,14.1,6.3,14.1,14.1
					C580.7,233.9,574.4,240.3,566.6,240.3z"/>
			</g>
			<g>
				<g>
					<path fill="#FFFFFF" d="M566.6,213c7.2,0,13.1,5.9,13.1,13.1c0,7.2-5.9,13.1-13.1,13.1s-13.1-5.9-13.1-13.1
						C553.5,218.9,559.4,213,566.6,213 M566.6,210.9c-8.4,0-15.2,6.8-15.2,15.2c0,8.4,6.8,15.2,15.2,15.2c8.4,0,15.2-6.8,15.2-15.2
						C581.8,217.7,575,210.9,566.6,210.9L566.6,210.9z"/>
				</g>
			</g>
		</g>
		<g>
			<defs>
				<circle id="SVGID_9_" cx="566.6" cy="226.1" r="13.1"/>
			</defs>
			<clipPath id="SVGID_10_">
				<use xlink:href="#SVGID_9_"  overflow="visible"/>
			</clipPath>
			<g clip-path="url(#SVGID_10_)">
				<g>
					<path fill="#F1F2F2" d="M569.1,226.9h-5c-0.6,0-1.2-0.5-1.2-1.2v-2.8c0-0.6,0.5-1.2,1.2-1.2h5c0.6,0,1.2,0.5,1.2,1.2v2.8
						C570.2,226.4,569.7,226.9,569.1,226.9z M564.1,222.6c-0.2,0-0.4,0.2-0.4,0.4v2.8c0,0.2,0.2,0.4,0.4,0.4h5
						c0.2,0,0.4-0.2,0.4-0.4v-2.8c0-0.2-0.2-0.4-0.4-0.4H564.1z"/>
				</g>
				<g>
					<path fill-rule="evenodd" clip-rule="evenodd" fill="#4CBAC5" d="M577.4,238.3c0,0.8-0.6,1.4-1.4,1.4h-18.8
						c-0.8,0-1.4-0.6-1.4-1.4v-12.6c0-0.8,0.6-1.4,1.4-1.4H576c0.8,0,1.4,0.6,1.4,1.4V238.3z"/>
					<path fill="#F1F2F2" d="M576,240h-18.8c-0.9,0-1.7-0.8-1.7-1.7v-12.6c0-0.9,0.8-1.7,1.7-1.7H576c0.9,0,1.7,0.8,1.7,1.7v12.6
						C577.7,239.3,576.9,240,576,240z M557.2,224.6c-0.6,0-1.2,0.5-1.2,1.2v12.6c0,0.6,0.5,1.2,1.2,1.2H576c0.6,0,1.2-0.5,1.2-1.2
						v-12.6c0-0.6-0.5-1.2-1.2-1.2H557.2z"/>
				</g>
				<g>
					<line fill="#6DB6D5" x1="555.8" y1="228.4" x2="577.4" y2="228.4"/>
					<rect x="555.8" y="228.1" fill="#F1F2F2" width="21.6" height="0.5"/>
				</g>
				<g>
					<path fill="#F1F2F2" d="M569,229.2c0,0.2-0.2,0.4-0.4,0.4h-4c-0.2,0-0.4-0.2-0.4-0.4v-1.5c0-0.2,0.2-0.4,0.4-0.4h4
						c0.2,0,0.4,0.2,0.4,0.4V229.2z"/>
				</g>
			</g>
		</g>
	</g>
	<g id="Brunel_1_">
		<g>
			
				<line fill="none" stroke="#414042" stroke-linecap="round" stroke-miterlimit="10" stroke-dasharray="2,3,2,3,2,3" x1="628" y1="333.3" x2="628" y2="234.5"/>
		</g>
		<g>
			<g>
				<path fill="#BA1D80" d="M628,233.8c-4.3,0-7.7-3.5-7.7-7.7s3.5-7.7,7.7-7.7s7.7,3.5,7.7,7.7S632.2,233.8,628,233.8z"/>
				<g>
					<path fill="#FFFFFF" d="M628,219.8c3.5,0,6.3,2.8,6.3,6.3c0,3.5-2.8,6.3-6.3,6.3c-3.5,0-6.3-2.8-6.3-6.3
						C621.7,222.6,624.5,219.8,628,219.8 M628,217c-5,0-9.2,4.1-9.2,9.1c0,5,4.1,9.2,9.2,9.2c5,0,9.1-4.1,9.1-9.2
						C637.1,221.1,633,217,628,217L628,217z"/>
				</g>
			</g>
		</g>
		<g>
			<rect x="632.5" y="292.4" fill="none" width="109.1" height="13.4"/>
			<text transform="matrix(1 0 0 1 632.4708 302.8848)" fill="#993680" font-family="'Cabin-Medium'" font-size="14">Brunel University</text>
			<rect x="632.5" y="308.8" fill="none" width="89.2" height="15.9"/>
			<text transform="matrix(1 0 0 1 632.4709 314.0801)"><tspan x="0" y="0" fill="#414042" font-family="'Arvo'" font-size="7">Industrial Design </tspan><tspan x="0" y="8.4" fill="#414042" font-family="'Arvo'" font-size="7">&amp; Technology BA</tspan></text>
			<rect x="632.5" y="327.6" fill="none" width="35.9" height="20.2"/>
			<text transform="matrix(1 0 0 1 632.4712 333.624)" fill="#414042" font-family="'Cabin-Bold'" font-size="8">11’- 15’</text>
		</g>
		<g>
			<g>
				<g>
					<path fill="#993680" d="M628,240.5c-7.9,0-14.3-6.4-14.3-14.3c0-7.9,6.4-14.3,14.3-14.3c7.9,0,14.3,6.4,14.3,14.3
						C642.3,234,635.9,240.5,628,240.5z"/>
				</g>
				<g>
					<path fill="#FFFFFF" d="M628,212.8c7.3,0,13.3,5.9,13.3,13.3c0,7.3-5.9,13.3-13.3,13.3c-7.3,0-13.3-5.9-13.3-13.3
						C614.7,218.8,620.6,212.8,628,212.8 M628,210.7c-8.5,0-15.4,6.9-15.4,15.4c0,8.5,6.9,15.4,15.4,15.4c8.5,0,15.4-6.9,15.4-15.4
						C643.4,217.6,636.5,210.7,628,210.7L628,210.7z"/>
				</g>
			</g>
			<g>
				<g>
					<path fill="#F1F2F2" d="M628,233c-3.6,0-6.7-1.9-6.7-3.5v-5.3c0-0.2,0.2-0.4,0.4-0.4h12.6c0.2,0,0.4,0.2,0.4,0.4v5.3
						C634.7,231.1,631.6,233,628,233z M622.1,224.5v4.9c0,0.9,2.5,2.7,5.9,2.7c3.4,0,5.9-1.8,5.9-2.7v-4.9H622.1z"/>
				</g>
				<g>
					<line fill="#BA1D80" x1="620.4" y1="222.5" x2="620.4" y2="229.4"/>
					<path fill="#F1F2F2" d="M620.4,229.7c-0.2,0-0.3-0.1-0.3-0.3v-6.9c0-0.2,0.1-0.3,0.3-0.3c0.2,0,0.3,0.1,0.3,0.3v6.9
						C620.7,229.6,620.6,229.7,620.4,229.7z"/>
				</g>
				<g>
					<polygon fill="#993680" points="628,228 617.6,223 628,219.6 638.4,223 					"/>
					<path fill="#F1F2F2" d="M628,228.4c-0.1,0-0.1,0-0.2,0l-10.4-5c-0.1-0.1-0.2-0.2-0.2-0.4c0-0.2,0.1-0.3,0.3-0.4l10.4-3.4
						c0.1,0,0.2,0,0.2,0l10.4,3.4c0.2,0,0.3,0.2,0.3,0.4c0,0.2-0.1,0.3-0.2,0.4l-10.4,5C628.1,228.4,628,228.4,628,228.4z
						 M618.6,223.1l9.3,4.5l9.3-4.5l-9.3-3L618.6,223.1z"/>
				</g>
				<g>
					<line fill="#BA1D80" x1="627.8" y1="223.1" x2="620.4" y2="221.8"/>
					<path fill="#F1F2F2" d="M627.8,223.5C627.8,223.5,627.8,223.5,627.8,223.5l-7.5-1.2c-0.2,0-0.4-0.2-0.3-0.5
						c0-0.2,0.2-0.4,0.5-0.3l7.5,1.2c0.2,0,0.4,0.2,0.3,0.5C628.2,223.3,628,223.5,627.8,223.5z"/>
				</g>
			</g>
		</g>
	</g>
	<g id="Orb_360_1_">
		<g>
			<path fill="#8DC63F" d="M507.7,233.8c-4.3,0-7.7-3.5-7.7-7.7s3.5-7.7,7.7-7.7s7.7,3.5,7.7,7.7S511.9,233.8,507.7,233.8z"/>
			<g>
				<path fill="#FFFFFF" d="M507.7,219.8c3.5,0,6.3,2.8,6.3,6.3c0,3.5-2.8,6.3-6.3,6.3s-6.3-2.8-6.3-6.3
					C501.4,222.6,504.2,219.8,507.7,219.8 M507.7,217c-5,0-9.2,4.1-9.2,9.1c0,5,4.1,9.2,9.2,9.2c5,0,9.1-4.1,9.1-9.2
					C516.8,221.1,512.7,217,507.7,217L507.7,217z"/>
			</g>
		</g>
		<g>
			
				<line fill="none" stroke="#414042" stroke-linecap="round" stroke-miterlimit="10" stroke-dasharray="2,3,2,3,2,3" x1="507.7" y1="324.2" x2="507.7" y2="228.8"/>
		</g>
		<g>
			<g>
				<path fill="#4ABC94" d="M507.7,240.1c-7.7,0-14-6.3-14-14c0-7.7,6.3-14,14-14c7.7,0,14,6.3,14,14
					C521.7,233.9,515.4,240.1,507.7,240.1z"/>
			</g>
			<g>
				<g>
					<path fill="#FFFFFF" d="M507.7,213.2c7.2,0,13,5.8,13,13c0,7.2-5.8,13-13,13c-7.2,0-13-5.8-13-13
						C494.7,219,500.5,213.2,507.7,213.2 M507.7,211c-8.3,0-15.1,6.8-15.1,15.1c0,8.3,6.8,15.1,15.1,15.1c8.3,0,15.1-6.8,15.1-15.1
						C522.8,217.8,516,211,507.7,211L507.7,211z"/>
				</g>
			</g>
		</g>
		<rect x="512.2" y="284" fill="none" width="84.9" height="13.3"/>
		<text transform="matrix(1 0 0 1 512.1802 294.4863)" fill="#4ABC94" font-family="'Cabin-Medium'" font-size="14">Orb 360 </text>
		<rect x="512.2" y="300.2" fill="none" width="89.2" height="15.9"/>
		<text transform="matrix(1 0 0 1 512.1803 305.5615)"><tspan x="0" y="0" fill="#414042" font-family="'Arvo'" font-size="7">Zorb ball operator and </tspan><tspan x="0" y="8.4" fill="#414042" font-family="'Arvo'" font-size="7">head-cam specialist.</tspan></text>
		<rect x="512.2" y="319.1" fill="none" width="35.9" height="20.2"/>
		<text transform="matrix(1 0 0 1 512.1796 325.1055)" fill="#414042" font-family="'Cabin-Bold'" font-size="8">11’</text>
		<g>
			<defs>
				<circle id="SVGID_11_" cx="507.7" cy="226.1" r="13"/>
			</defs>
			<clipPath id="SVGID_12_">
				<use xlink:href="#SVGID_11_"  overflow="visible"/>
			</clipPath>
			<g clip-path="url(#SVGID_12_)">
				<g>
					<path fill="#F1F2F2" d="M514.3,234.4h-26.1c-0.4,0-0.7-0.4-0.7-0.8v-14.7c0-0.4,0.3-0.8,0.7-0.8h26.1c0.4,0,0.7,0.4,0.7,0.8
						v14.7C515,234,514.7,234.4,514.3,234.4z M488.2,218.4c-0.2,0-0.4,0.2-0.4,0.4v14.7c0,0.2,0.2,0.4,0.4,0.4h26.1
						c0.2,0,0.4-0.2,0.4-0.4v-14.7c0-0.2-0.2-0.4-0.4-0.4H488.2z"/>
				</g>
				<g>
					<ellipse fill-rule="evenodd" clip-rule="evenodd" fill="#F1F2F2" cx="501.3" cy="226.2" rx="4.8" ry="6.1"/>
				</g>
				<g>
					<path fill="#4ABC94" d="M499.3,229c0.5-0.9,0.5-1.7,0.4-2.4h-0.4c-0.1,0-0.2-0.1-0.2-0.2v-0.1c0-0.1,0.1-0.2,0.2-0.2h0.3
						c-0.1-0.3-0.3-0.9-0.3-1.5c0-1.2,0.9-2,2-2c0.8,0,1.3,0.5,1.6,0.7c0.1,0.1,0.1,0.2,0,0.2l-0.3,0.4c-0.1,0.1-0.2,0.1-0.3,0
						c0,0-0.5-0.5-1-0.5c-0.6,0-1,0.4-1,1.1c0,0.6,0.3,1.2,0.3,1.5h1.3c0.1,0,0.2,0.1,0.2,0.2v0.1c0,0.1-0.1,0.2-0.2,0.2h-1.2
						c0.1,0.5,0.1,1.3-0.2,1.9h2.1c0.1,0,0.2,0.1,0.2,0.2v0.5c0,0.1-0.1,0.2-0.2,0.2h-3c-0.1,0-0.2-0.1-0.2-0.2V229z"/>
				</g>
			</g>
		</g>
	</g>
	<g id="Roaming_1_">
		<g>
			
				<line fill="none" stroke="#414042" stroke-linecap="round" stroke-miterlimit="10" stroke-dasharray="2,3,2,3,2,3" x1="450.8" y1="216.5" x2="451" y2="132.6"/>
		</g>
		<g>
			<path fill="#8DC63F" d="M447.8,233.8c-4.3,0-7.7-3.5-7.7-7.7s3.5-7.7,7.7-7.7s7.7,3.5,7.7,7.7S452,233.8,447.8,233.8z"/>
			<g>
				<path fill="#FFFFFF" d="M447.8,219.8c3.5,0,6.3,2.8,6.3,6.3c0,3.5-2.8,6.3-6.3,6.3s-6.3-2.8-6.3-6.3
					C441.5,222.6,444.3,219.8,447.8,219.8 M447.8,217c-5,0-9.2,4.1-9.2,9.1c0,5,4.1,9.2,9.2,9.2c5,0,9.1-4.1,9.1-9.2
					C456.9,221.1,452.8,217,447.8,217L447.8,217z"/>
			</g>
		</g>
		<g>
			<g>
				<path fill="#4ABC94" d="M451,240.1c-7.7,0-14-6.3-14-14c0-7.7,6.3-14,14-14c7.7,0,14,6.3,14,14
					C465.1,233.9,458.8,240.1,451,240.1z"/>
			</g>
			<g>
				<g>
					<path fill="#FFFFFF" d="M451,213.2c7.2,0,13,5.8,13,13c0,7.2-5.8,13-13,13s-13-5.8-13-13C438.1,219,443.9,213.2,451,213.2
						 M451,211c-8.3,0-15.1,6.8-15.1,15.1c0,8.3,6.8,15.1,15.1,15.1c8.3,0,15.1-6.8,15.1-15.1C466.1,217.8,459.3,211,451,211
						L451,211z"/>
				</g>
			</g>
		</g>
		<rect x="455.5" y="133.9" fill="none" width="84.9" height="25.9"/>
		<text transform="matrix(1 0 0 1 455.5223 144.3936)"><tspan x="0" y="0" fill="#4ABC94" font-family="'Cabin-Medium'" font-size="14">Roaming </tspan><tspan x="0" y="13" fill="#4ABC94" font-family="'Cabin-Medium'" font-size="14">Rotisserie</tspan></text>
		<rect x="455.5" y="162.8" fill="none" width="89.2" height="15.9"/>
		<text transform="matrix(1 0 0 1 455.5226 168.082)"><tspan x="0" y="0" fill="#414042" font-family="'Arvo'" font-size="7">Skewering &amp; Serving </tspan><tspan x="0" y="8.4" fill="#414042" font-family="'Arvo'" font-size="7">Chickens.</tspan></text>
		<rect x="455.5" y="181.6" fill="none" width="35.9" height="20.2"/>
		<text transform="matrix(1 0 0 1 455.5228 187.626)" fill="#414042" font-family="'Cabin-Bold'" font-size="8">10’</text>
		<g>
			<defs>
				<circle id="SVGID_13_" cx="451" cy="226.1" r="13"/>
			</defs>
			<clipPath id="SVGID_14_">
				<use xlink:href="#SVGID_13_"  overflow="visible"/>
			</clipPath>
			<g clip-path="url(#SVGID_14_)">
				<g>
					<path fill="#F1F2F2" d="M457.6,234.4h-26.1c-0.4,0-0.7-0.4-0.7-0.8v-14.7c0-0.4,0.3-0.8,0.7-0.8h26.1c0.4,0,0.7,0.4,0.7,0.8
						v14.7C458.4,234,458.1,234.4,457.6,234.4z M431.5,218.4c-0.2,0-0.4,0.2-0.4,0.4v14.7c0,0.2,0.2,0.4,0.4,0.4h26.1
						c0.2,0,0.4-0.2,0.4-0.4v-14.7c0-0.2-0.2-0.4-0.4-0.4H431.5z"/>
				</g>
				<g>
					<ellipse fill-rule="evenodd" clip-rule="evenodd" fill="#F1F2F2" cx="444.6" cy="226.2" rx="4.8" ry="6.1"/>
				</g>
				<g>
					<path fill="#4ABC94" d="M442.6,229c0.5-0.9,0.5-1.7,0.4-2.4h-0.4c-0.1,0-0.2-0.1-0.2-0.2v-0.1c0-0.1,0.1-0.2,0.2-0.2h0.3
						c-0.1-0.3-0.3-0.9-0.3-1.5c0-1.2,0.9-2,2-2c0.8,0,1.3,0.5,1.6,0.7c0.1,0.1,0.1,0.2,0,0.2l-0.3,0.4c-0.1,0.1-0.2,0.1-0.3,0
						c0,0-0.5-0.5-1-0.5c-0.6,0-1,0.4-1,1.1c0,0.6,0.3,1.2,0.3,1.5h1.3c0.1,0,0.2,0.1,0.2,0.2v0.1c0,0.1-0.1,0.2-0.2,0.2h-1.2
						c0.1,0.5,0.1,1.3-0.2,1.9h2.1c0.1,0,0.2,0.1,0.2,0.2v0.5c0,0.1-0.1,0.2-0.2,0.2h-3c-0.1,0-0.2-0.1-0.2-0.2V229z"/>
				</g>
			</g>
		</g>
	</g>
	<g id="Yr_Book_1_">
		<g>
			
				<line fill="none" stroke="#414042" stroke-linecap="round" stroke-miterlimit="10" stroke-dasharray="2,3,2,3,2,3" x1="394.6" y1="226.1" x2="394.6" y2="83.9"/>
		</g>
		<g>
			<g>
				<path fill="#4CBAC5" d="M394.6,233.8c-4.3,0-7.7-3.5-7.7-7.7s3.5-7.7,7.7-7.7s7.7,3.5,7.7,7.7S398.9,233.8,394.6,233.8z"/>
				<g>
					<path fill="#FFFFFF" d="M394.6,219.8c3.5,0,6.3,2.8,6.3,6.3c0,3.5-2.8,6.3-6.3,6.3c-3.5,0-6.3-2.8-6.3-6.3
						C388.3,222.6,391.1,219.8,394.6,219.8 M394.6,217c-5,0-9.2,4.1-9.2,9.1c0,5,4.1,9.2,9.2,9.2c5,0,9.1-4.1,9.1-9.2
						C403.8,221.1,399.7,217,394.6,217L394.6,217z"/>
				</g>
			</g>
		</g>
		<g>
			<rect x="285.9" y="84.3" fill="none" width="103.8" height="26.5"/>
			<text transform="matrix(1 0 0 1 296.0506 94.7568)"><tspan x="0" y="0" fill="#4CBAC5" font-family="'Cabin-Medium'" font-size="14">GCSE Yearbook</tspan><tspan x="11.9" y="13" fill="#4CBAC5" font-family="'Cabin-Medium'" font-size="14">Photographer</tspan></text>
			<rect x="283.4" y="113.7" fill="none" width="106.3" height="15.9"/>
			<text transform="matrix(1 0 0 1 294.458 119.0449)"><tspan x="0" y="0" fill="#414042" font-family="'Arvo'" font-size="7">The school couldn’t afford a </tspan><tspan x="-0.7" y="8.4" fill="#414042" font-family="'Arvo'" font-size="7">professional, so I stepped in.</tspan></text>
			<rect x="353.9" y="132.6" fill="none" width="35.9" height="20.2"/>
			<text transform="matrix(1 0 0 1 364.2561 138.5889)" fill="#414042" font-family="'Cabin-Bold'" font-size="8">09’+10’</text>
		</g>
		<g>
			<g>
				<g>
					<path fill="#4CBAC5" d="M394.6,240.3c-7.8,0-14.1-6.3-14.1-14.1c0-7.8,6.3-14.1,14.1-14.1c7.8,0,14.1,6.3,14.1,14.1
						C408.8,233.9,402.4,240.3,394.6,240.3z"/>
				</g>
				<g>
					<g>
						<path fill="#FFFFFF" d="M394.6,213c7.2,0,13.1,5.9,13.1,13.1c0,7.2-5.9,13.1-13.1,13.1c-7.2,0-13.1-5.9-13.1-13.1
							C381.5,218.9,387.4,213,394.6,213 M394.6,210.9c-8.4,0-15.2,6.8-15.2,15.2c0,8.4,6.8,15.2,15.2,15.2c8.4,0,15.2-6.8,15.2-15.2
							C409.8,217.7,403,210.9,394.6,210.9L394.6,210.9z"/>
					</g>
				</g>
			</g>
			<g>
				<defs>
					<circle id="SVGID_15_" cx="394.6" cy="226.1" r="13.1"/>
				</defs>
				<clipPath id="SVGID_16_">
					<use xlink:href="#SVGID_15_"  overflow="visible"/>
				</clipPath>
				<g clip-path="url(#SVGID_16_)">
					<g>
						<path fill="#F1F2F2" d="M397.1,226.9h-5c-0.6,0-1.2-0.5-1.2-1.2v-2.8c0-0.6,0.5-1.2,1.2-1.2h5c0.6,0,1.2,0.5,1.2,1.2v2.8
							C398.3,226.4,397.8,226.9,397.1,226.9z M392.1,222.6c-0.2,0-0.4,0.2-0.4,0.4v2.8c0,0.2,0.2,0.4,0.4,0.4h5
							c0.2,0,0.4-0.2,0.4-0.4v-2.8c0-0.2-0.2-0.4-0.4-0.4H392.1z"/>
					</g>
					<g>
						<path fill-rule="evenodd" clip-rule="evenodd" fill="#4CBAC5" d="M405.5,238.3c0,0.8-0.6,1.4-1.4,1.4h-18.8
							c-0.8,0-1.4-0.6-1.4-1.4v-12.6c0-0.8,0.6-1.4,1.4-1.4H404c0.8,0,1.4,0.6,1.4,1.4V238.3z"/>
						<path fill="#F1F2F2" d="M404,240h-18.8c-0.9,0-1.7-0.8-1.7-1.7v-12.6c0-0.9,0.8-1.7,1.7-1.7H404c0.9,0,1.7,0.8,1.7,1.7v12.6
							C405.7,239.3,405,240,404,240z M385.2,224.6c-0.6,0-1.2,0.5-1.2,1.2v12.6c0,0.6,0.5,1.2,1.2,1.2H404c0.6,0,1.2-0.5,1.2-1.2
							v-12.6c0-0.6-0.5-1.2-1.2-1.2H385.2z"/>
					</g>
					<g>
						<line fill="#6DB6D5" x1="383.8" y1="228.4" x2="405.5" y2="228.4"/>
						<rect x="383.8" y="228.1" fill="#F1F2F2" width="21.6" height="0.5"/>
					</g>
					<g>
						<path fill="#F1F2F2" d="M397.1,229.2c0,0.2-0.2,0.4-0.4,0.4h-4c-0.2,0-0.4-0.2-0.4-0.4v-1.5c0-0.2,0.2-0.4,0.4-0.4h4
							c0.2,0,0.4,0.2,0.4,0.4V229.2z"/>
					</g>
				</g>
			</g>
		</g>
	</g>
	<g id="South_Africa_1_1_">
		<g>
			
				<line fill="none" stroke="#414042" stroke-linecap="round" stroke-miterlimit="10" stroke-dasharray="2,3,2,3,2,3" x1="334" y1="320.2" x2="334" y2="226.1"/>
		</g>
		<g>
			<g>
				<path fill="#4CBAC5" d="M334,233.8c-4.3,0-7.7-3.5-7.7-7.7s3.5-7.7,7.7-7.7s7.7,3.5,7.7,7.7S338.2,233.8,334,233.8z"/>
				<g>
					<path fill="#FFFFFF" d="M334,219.8c3.5,0,6.3,2.8,6.3,6.3c0,3.5-2.8,6.3-6.3,6.3c-3.5,0-6.3-2.8-6.3-6.3
						C327.7,222.6,330.5,219.8,334,219.8 M334,217c-5,0-9.2,4.1-9.2,9.1c0,5,4.1,9.2,9.2,9.2c5,0,9.1-4.1,9.1-9.2
						C343.1,221.1,339,217,334,217L334,217z"/>
				</g>
			</g>
		</g>
		<g>
			<g>
				<g>
					<path fill="#4CBAC5" d="M334,240.3c-7.8,0-14.1-6.3-14.1-14.1c0-7.8,6.3-14.1,14.1-14.1c7.8,0,14.1,6.3,14.1,14.1
						C348.1,233.9,341.8,240.3,334,240.3z"/>
				</g>
				<g>
					<g>
						<path fill="#FFFFFF" d="M334,213c7.2,0,13.1,5.9,13.1,13.1c0,7.2-5.9,13.1-13.1,13.1c-7.2,0-13.1-5.9-13.1-13.1
							C320.9,218.9,326.7,213,334,213 M334,210.9c-8.4,0-15.2,6.8-15.2,15.2c0,8.4,6.8,15.2,15.2,15.2c8.4,0,15.2-6.8,15.2-15.2
							C349.2,217.7,342.4,210.9,334,210.9L334,210.9z"/>
					</g>
				</g>
			</g>
			<g>
				<defs>
					<circle id="SVGID_17_" cx="334" cy="226.1" r="13.1"/>
				</defs>
				<clipPath id="SVGID_18_">
					<use xlink:href="#SVGID_17_"  overflow="visible"/>
				</clipPath>
				<g clip-path="url(#SVGID_18_)">
					<g>
						<path fill="#F1F2F2" d="M336.5,226.9h-5c-0.6,0-1.2-0.5-1.2-1.2v-2.8c0-0.6,0.5-1.2,1.2-1.2h5c0.6,0,1.2,0.5,1.2,1.2v2.8
							C337.6,226.4,337.1,226.9,336.5,226.9z M331.5,222.6c-0.2,0-0.4,0.2-0.4,0.4v2.8c0,0.2,0.2,0.4,0.4,0.4h5
							c0.2,0,0.4-0.2,0.4-0.4v-2.8c0-0.2-0.2-0.4-0.4-0.4H331.5z"/>
					</g>
					<g>
						<path fill-rule="evenodd" clip-rule="evenodd" fill="#4CBAC5" d="M344.8,238.3c0,0.8-0.6,1.4-1.4,1.4h-18.8
							c-0.8,0-1.4-0.6-1.4-1.4v-12.6c0-0.8,0.6-1.4,1.4-1.4h18.8c0.8,0,1.4,0.6,1.4,1.4V238.3z"/>
						<path fill="#F1F2F2" d="M343.4,240h-18.8c-0.9,0-1.7-0.8-1.7-1.7v-12.6c0-0.9,0.8-1.7,1.7-1.7h18.8c0.9,0,1.7,0.8,1.7,1.7
							v12.6C345.1,239.3,344.3,240,343.4,240z M324.6,224.6c-0.6,0-1.2,0.5-1.2,1.2v12.6c0,0.6,0.5,1.2,1.2,1.2h18.8
							c0.6,0,1.2-0.5,1.2-1.2v-12.6c0-0.6-0.5-1.2-1.2-1.2H324.6z"/>
					</g>
					<g>
						<line fill="#6DB6D5" x1="323.2" y1="228.4" x2="344.8" y2="228.4"/>
						<rect x="323.2" y="228.1" fill="#F1F2F2" width="21.6" height="0.5"/>
					</g>
					<g>
						<path fill="#F1F2F2" d="M336.4,229.2c0,0.2-0.2,0.4-0.4,0.4h-4c-0.2,0-0.4-0.2-0.4-0.4v-1.5c0-0.2,0.2-0.4,0.4-0.4h4
							c0.2,0,0.4,0.2,0.4,0.4V229.2z"/>
					</g>
				</g>
			</g>
		</g>
		<g>
			<rect x="338.5" y="280" fill="none" width="84.9" height="13.4"/>
			<text transform="matrix(1 0 0 1 338.4736 290.4551)" fill="#4CBAC5" font-family="'Cabin-Medium'" font-size="14">South Africa</text>
			<rect x="338.5" y="296.3" fill="none" width="89.2" height="15.9"/>
			<text transform="matrix(1 0 0 1 338.4738 301.6494)"><tspan x="0" y="0" fill="#414042" font-family="'Arvo'" font-size="7">Teaching secondary </tspan><tspan x="0" y="8.4" fill="#414042" font-family="'Arvo'" font-size="7">school age children</tspan></text>
			<rect x="338.5" y="315.2" fill="none" width="35.9" height="20.2"/>
			<text transform="matrix(1 0 0 1 338.474 321.1934)" fill="#414042" font-family="'Cabin-Bold'" font-size="8">09’</text>
		</g>
	</g>
	<g id="Toy_Shop_1_">
		<g>
			<rect x="31.3" y="63.1" fill="none" width="129.8" height="13.4"/>
			<text transform="matrix(1 0 0 1 31.2876 73.5576)" fill="#4CBAC5" font-family="'Cabin-Medium'" font-size="14">Born into a Toy Shop</text>
			<rect x="31.3" y="89.6" fill="none" width="35.9" height="20.2"/>
			<text transform="matrix(1 0 0 1 31.288 95.5848)" fill="#414042" font-family="'Cabin-Bold'" font-size="8">92’</text>
			<rect x="31.3" y="79.6" fill="none" width="116.4" height="6.7"/>
			<text transform="matrix(1 0 0 1 31.2878 84.959)" fill="#414042" font-family="'Arvo'" font-size="7">&amp; lived above it most of my live.</text>
		</g>
		<g>
			
				<line fill="none" stroke="#414042" stroke-linecap="round" stroke-miterlimit="10" stroke-dasharray="2,3,2,3,2,3" x1="26.8" y1="226.1" x2="26.8" y2="61.6"/>
		</g>
		<g>
			<g>
				<g>
					<path fill="#4CBAC5" d="M26.8,240.3c-7.8,0-14.1-6.3-14.1-14.1c0-7.8,6.3-14.1,14.1-14.1c7.8,0,14.1,6.3,14.1,14.1
						C40.9,233.9,34.6,240.3,26.8,240.3z"/>
				</g>
				<g>
					<g>
						<path fill="#FFFFFF" d="M26.8,213c7.2,0,13.1,5.9,13.1,13.1c0,7.2-5.9,13.1-13.1,13.1c-7.2,0-13.1-5.9-13.1-13.1
							C13.7,218.9,19.6,213,26.8,213 M26.8,210.9c-8.4,0-15.2,6.8-15.2,15.2c0,8.4,6.8,15.2,15.2,15.2c8.4,0,15.2-6.8,15.2-15.2
							C42,217.7,35.2,210.9,26.8,210.9L26.8,210.9z"/>
					</g>
				</g>
			</g>
			<g>
				<defs>
					<circle id="SVGID_19_" cx="26.8" cy="226.1" r="13.1"/>
				</defs>
				<clipPath id="SVGID_20_">
					<use xlink:href="#SVGID_19_"  overflow="visible"/>
				</clipPath>
				<g clip-path="url(#SVGID_20_)">
					<g>
						<path fill="#F1F2F2" d="M29.3,226.9h-5c-0.6,0-1.2-0.5-1.2-1.2v-2.8c0-0.6,0.5-1.2,1.2-1.2h5c0.6,0,1.2,0.5,1.2,1.2v2.8
							C30.4,226.4,29.9,226.9,29.3,226.9z M24.3,222.6c-0.2,0-0.4,0.2-0.4,0.4v2.8c0,0.2,0.2,0.4,0.4,0.4h5c0.2,0,0.4-0.2,0.4-0.4
							v-2.8c0-0.2-0.2-0.4-0.4-0.4H24.3z"/>
					</g>
					<g>
						<path fill-rule="evenodd" clip-rule="evenodd" fill="#4CBAC5" d="M37.6,238.3c0,0.8-0.6,1.4-1.4,1.4H17.4
							c-0.8,0-1.4-0.6-1.4-1.4v-12.6c0-0.8,0.6-1.4,1.4-1.4h18.8c0.8,0,1.4,0.6,1.4,1.4V238.3z"/>
						<path fill="#F1F2F2" d="M36.2,240H17.4c-0.9,0-1.7-0.8-1.7-1.7v-12.6c0-0.9,0.8-1.7,1.7-1.7h18.8c0.9,0,1.7,0.8,1.7,1.7v12.6
							C37.9,239.3,37.1,240,36.2,240z M17.4,224.6c-0.6,0-1.2,0.5-1.2,1.2v12.6c0,0.6,0.5,1.2,1.2,1.2h18.8c0.6,0,1.2-0.5,1.2-1.2
							v-12.6c0-0.6-0.5-1.2-1.2-1.2H17.4z"/>
					</g>
					<g>
						<line fill="#6DB6D5" x1="16" y1="228.4" x2="37.6" y2="228.4"/>
						<rect x="16" y="228.1" fill="#F1F2F2" width="21.6" height="0.5"/>
					</g>
					<g>
						<path fill="#F1F2F2" d="M29.2,229.2c0,0.2-0.2,0.4-0.4,0.4h-4c-0.2,0-0.4-0.2-0.4-0.4v-1.5c0-0.2,0.2-0.4,0.4-0.4h4
							c0.2,0,0.4,0.2,0.4,0.4V229.2z"/>
					</g>
				</g>
			</g>
		</g>
	</g>
	<g id="GCSE_1_">
		<g>
			
				<line fill="none" stroke="#414042" stroke-linecap="round" stroke-miterlimit="10" stroke-dasharray="2,3,2,3,2,3" x1="84" y1="329" x2="84" y2="226.1"/>
		</g>
		<rect x="88.5" y="288.3" fill="none" width="84.9" height="13.4"/>
		<text transform="matrix(1 0 0 1 88.5207 298.8262)" fill="#993680" font-family="'Cabin-Medium'" font-size="14">GCSE</text>
		<rect x="88.5" y="304.7" fill="none" width="107.5" height="15.9"/>
		<text transform="matrix(1 0 0 1 88.5208 310.0215)"><tspan x="0" y="0" fill="#414042" font-family="'Arvo'" font-size="7">Standard Subjects + Drama, </tspan><tspan x="0" y="8.4" fill="#414042" font-family="'Arvo'" font-size="7">Product Design, Art, French.</tspan></text>
		<rect x="88.5" y="323.6" fill="none" width="35.9" height="20.2"/>
		<text transform="matrix(1 0 0 1 88.5201 329.5654)" fill="#414042" font-family="'Cabin-Bold'" font-size="8">04’- 08’</text>
		<g>
			<g>
				<g>
					<path fill="#993680" d="M84,240.5c-7.9,0-14.3-6.4-14.3-14.3c0-7.9,6.4-14.3,14.3-14.3c7.9,0,14.3,6.4,14.3,14.3
						C98.4,234,91.9,240.5,84,240.5z"/>
				</g>
				<g>
					<path fill="#FFFFFF" d="M84,212.8c7.3,0,13.3,5.9,13.3,13.3c0,7.3-5.9,13.3-13.3,13.3c-7.3,0-13.3-5.9-13.3-13.3
						C70.7,218.8,76.7,212.8,84,212.8 M84,210.7c-8.5,0-15.4,6.9-15.4,15.4c0,8.5,6.9,15.4,15.4,15.4c8.5,0,15.4-6.9,15.4-15.4
						C99.4,217.6,92.5,210.7,84,210.7L84,210.7z"/>
				</g>
			</g>
			<g>
				<g>
					<path fill="#F1F2F2" d="M84,233c-3.6,0-6.7-1.9-6.7-3.5v-5.3c0-0.2,0.2-0.4,0.4-0.4h12.6c0.2,0,0.4,0.2,0.4,0.4v5.3
						C90.7,231.1,87.6,233,84,233z M78.1,224.5v4.9c0,0.9,2.5,2.7,5.9,2.7s5.9-1.8,5.9-2.7v-4.9H78.1z"/>
				</g>
				<g>
					<line fill="#BA1D80" x1="76.4" y1="222.5" x2="76.4" y2="229.4"/>
					<path fill="#F1F2F2" d="M76.4,229.7c-0.2,0-0.3-0.1-0.3-0.3v-6.9c0-0.2,0.1-0.3,0.3-0.3s0.3,0.1,0.3,0.3v6.9
						C76.7,229.6,76.6,229.7,76.4,229.7z"/>
				</g>
				<g>
					<polygon fill="#993680" points="84,228 73.6,223 84,219.6 94.4,223 					"/>
					<path fill="#F1F2F2" d="M84,228.4c-0.1,0-0.1,0-0.2,0l-10.4-5c-0.1-0.1-0.2-0.2-0.2-0.4c0-0.2,0.1-0.3,0.3-0.4l10.4-3.4
						c0.1,0,0.2,0,0.2,0l10.4,3.4c0.2,0,0.3,0.2,0.3,0.4c0,0.2-0.1,0.3-0.2,0.4l-10.4,5C84.1,228.4,84.1,228.4,84,228.4z
						 M74.7,223.1l9.3,4.5l9.3-4.5l-9.3-3L74.7,223.1z"/>
				</g>
				<g>
					<line fill="#BA1D80" x1="83.9" y1="223.1" x2="76.4" y2="221.8"/>
					<path fill="#F1F2F2" d="M83.9,223.5C83.9,223.5,83.8,223.5,83.9,223.5l-7.5-1.2c-0.2,0-0.4-0.2-0.3-0.5c0-0.2,0.2-0.4,0.5-0.3
						l7.5,1.2c0.2,0,0.4,0.2,0.3,0.5C84.2,223.3,84.1,223.5,83.9,223.5z"/>
				</g>
			</g>
		</g>
	</g>
	<g id="Soup_Dragon_1_">
		<g>
			
				<line fill="none" stroke="#414042" stroke-linecap="round" stroke-miterlimit="10" stroke-dasharray="2,3,2,3,2,3" x1="148.3" y1="226.1" x2="148.3" y2="116.8"/>
		</g>
		<g>
			<rect x="58.9" y="116.8" fill="none" width="84.9" height="13.4"/>
			<text transform="matrix(1 0 0 1 65.2694 127.2734)" fill="#4ABC94" font-family="'Cabin-Medium'" font-size="14">Soup Dragon</text>
			<rect x="54.6" y="133.1" fill="none" width="89.2" height="15.9"/>
			<text transform="matrix(1 0 0 1 57.3378 138.4688)"><tspan x="0" y="0" fill="#58595B" font-family="'Arvo'" font-size="7">Traditional childrens  toy </tspan><tspan x="28.2" y="8.4" fill="#58595B" font-family="'Arvo'" font-size="7">shop. (Part Time) </tspan></text>
			<rect x="107.9" y="152" fill="none" width="35.9" height="20.2"/>
			<text transform="matrix(1 0 0 1 119.7453 158.0127)" fill="#414042" font-family="'Cabin-Bold'" font-size="8">05’- 11’</text>
		</g>
		<g>
			<g>
				<g>
					<path fill="#4ABC94" d="M148.3,240.1c-7.7,0-14-6.3-14-14c0-7.7,6.3-14,14-14c7.7,0,14,6.3,14,14
						C162.3,233.9,156,240.1,148.3,240.1z"/>
				</g>
				<g>
					<g>
						<path fill="#FFFFFF" d="M148.3,213.2c7.2,0,13,5.8,13,13c0,7.2-5.8,13-13,13c-7.2,0-13-5.8-13-13
							C135.3,219,141.1,213.2,148.3,213.2 M148.3,211c-8.3,0-15.1,6.8-15.1,15.1c0,8.3,6.8,15.1,15.1,15.1c8.3,0,15.1-6.8,15.1-15.1
							C163.4,217.8,156.6,211,148.3,211L148.3,211z"/>
					</g>
				</g>
			</g>
			<g>
				<defs>
					<circle id="SVGID_21_" cx="148.3" cy="226.1" r="13"/>
				</defs>
				<clipPath id="SVGID_22_">
					<use xlink:href="#SVGID_21_"  overflow="visible"/>
				</clipPath>
				<g clip-path="url(#SVGID_22_)">
					<g>
						<path fill="#F1F2F2" d="M154.9,234.4h-26.1c-0.4,0-0.7-0.4-0.7-0.8v-14.7c0-0.4,0.3-0.8,0.7-0.8h26.1c0.4,0,0.7,0.4,0.7,0.8
							v14.7C155.7,234,155.3,234.4,154.9,234.4z M128.8,218.4c-0.2,0-0.4,0.2-0.4,0.4v14.7c0,0.2,0.2,0.4,0.4,0.4h26.1
							c0.2,0,0.4-0.2,0.4-0.4v-14.7c0-0.2-0.2-0.4-0.4-0.4H128.8z"/>
					</g>
					<g>
						<ellipse fill-rule="evenodd" clip-rule="evenodd" fill="#F1F2F2" cx="141.9" cy="226.2" rx="4.8" ry="6.1"/>
					</g>
					<g>
						<path fill="#4ABC94" d="M139.9,229c0.5-0.9,0.5-1.7,0.4-2.4h-0.4c-0.1,0-0.2-0.1-0.2-0.2v-0.1c0-0.1,0.1-0.2,0.2-0.2h0.3
							c-0.1-0.3-0.3-0.9-0.3-1.5c0-1.2,0.9-2,2-2c0.8,0,1.3,0.5,1.6,0.7c0.1,0.1,0.1,0.2,0,0.2l-0.3,0.4c-0.1,0.1-0.2,0.1-0.3,0
							c0,0-0.5-0.5-1-0.5c-0.6,0-1,0.4-1,1.1c0,0.6,0.3,1.2,0.3,1.5h1.3c0.1,0,0.2,0.1,0.2,0.2v0.1c0,0.1-0.1,0.2-0.2,0.2h-1.2
							c0.1,0.5,0.1,1.3-0.2,1.9h2.1c0.1,0,0.2,0.1,0.2,0.2v0.5c0,0.1-0.1,0.2-0.2,0.2h-3c-0.1,0-0.2-0.1-0.2-0.2V229z"/>
					</g>
				</g>
			</g>
		</g>
	</g>
	<g id="A_Level_1_">
		<g>
			<g>
				<rect x="217.2" y="303.7" fill="none" width="84.9" height="13.4"/>
				<text transform="matrix(1 0 0 1 217.2313 314.2012)" fill="#993680" font-family="'Cabin-Medium'" font-size="14">A-level</text>
				<rect x="217.2" y="320.1" fill="none" width="89.2" height="15.9"/>
				<text transform="matrix(1 0 0 1 217.2313 325.3965)"><tspan x="0" y="0" fill="#414042" font-family="'Arvo'" font-size="7">Product design, </tspan><tspan x="0" y="8.4" fill="#414042" font-family="'Arvo'" font-size="7">Photography, Art.</tspan></text>
				<rect x="217.2" y="338.9" fill="none" width="35.9" height="20.2"/>
				<text transform="matrix(1 0 0 1 217.2307 344.9395)" fill="#414042" font-family="'Cabin-Bold'" font-size="8">08’- 11’</text>
			</g>
			<g>
				
					<line fill="none" stroke="#414042" stroke-linecap="round" stroke-miterlimit="10" stroke-dasharray="2,3,2,3,2,3" x1="212.7" y1="344.4" x2="212.7" y2="226.1"/>
			</g>
			<g>
				<g>
					<path fill="#BA1D80" d="M212.7,233.8c-4.3,0-7.7-3.5-7.7-7.7s3.5-7.7,7.7-7.7s7.7,3.5,7.7,7.7S217,233.8,212.7,233.8z"/>
					<g>
						<path fill="#FFFFFF" d="M212.7,219.8c3.5,0,6.3,2.8,6.3,6.3c0,3.5-2.8,6.3-6.3,6.3s-6.3-2.8-6.3-6.3
							C206.4,222.6,209.2,219.8,212.7,219.8 M212.7,217c-5,0-9.2,4.1-9.2,9.1c0,5,4.1,9.2,9.2,9.2c5,0,9.1-4.1,9.1-9.2
							C221.9,221.1,217.8,217,212.7,217L212.7,217z"/>
					</g>
				</g>
			</g>
		</g>
		<g>
			<g>
				<g>
					<path fill="#993680" d="M213,240.5c-7.9,0-14.3-6.4-14.3-14.3c0-7.9,6.4-14.3,14.3-14.3c7.9,0,14.3,6.4,14.3,14.3
						C227.3,234,220.9,240.5,213,240.5z"/>
				</g>
				<g>
					<path fill="#FFFFFF" d="M213,212.8c7.3,0,13.3,5.9,13.3,13.3c0,7.3-5.9,13.3-13.3,13.3c-7.3,0-13.3-5.9-13.3-13.3
						C199.7,218.8,205.7,212.8,213,212.8 M213,210.7c-8.5,0-15.4,6.9-15.4,15.4c0,8.5,6.9,15.4,15.4,15.4c8.5,0,15.4-6.9,15.4-15.4
						C228.4,217.6,221.5,210.7,213,210.7L213,210.7z"/>
				</g>
			</g>
			<g>
				<g>
					<path fill="#F1F2F2" d="M213,233c-3.6,0-6.7-1.9-6.7-3.5v-5.3c0-0.2,0.2-0.4,0.4-0.4h12.6c0.2,0,0.4,0.2,0.4,0.4v5.3
						C219.7,231.1,216.6,233,213,233z M207.1,224.5v4.9c0,0.9,2.5,2.7,5.9,2.7c3.4,0,5.9-1.8,5.9-2.7v-4.9H207.1z"/>
				</g>
				<g>
					<line fill="#BA1D80" x1="205.4" y1="222.5" x2="205.4" y2="229.4"/>
					<path fill="#F1F2F2" d="M205.4,229.7c-0.2,0-0.3-0.1-0.3-0.3v-6.9c0-0.2,0.1-0.3,0.3-0.3c0.2,0,0.3,0.1,0.3,0.3v6.9
						C205.7,229.6,205.6,229.7,205.4,229.7z"/>
				</g>
				<g>
					<polygon fill="#993680" points="213,228 202.6,223 213,219.6 223.4,223 					"/>
					<path fill="#F1F2F2" d="M213,228.4c-0.1,0-0.1,0-0.2,0l-10.4-5c-0.1-0.1-0.2-0.2-0.2-0.4c0-0.2,0.1-0.3,0.3-0.4l10.4-3.4
						c0.1,0,0.2,0,0.2,0l10.4,3.4c0.2,0,0.3,0.2,0.3,0.4c0,0.2-0.1,0.3-0.2,0.4l-10.4,5C213.1,228.4,213.1,228.4,213,228.4z
						 M203.7,223.1l9.3,4.5l9.3-4.5l-9.3-3L203.7,223.1z"/>
				</g>
				<g>
					<line fill="#BA1D80" x1="212.9" y1="223.1" x2="205.4" y2="221.8"/>
					<path fill="#F1F2F2" d="M212.9,223.5C212.8,223.5,212.8,223.5,212.9,223.5l-7.5-1.2c-0.2,0-0.4-0.2-0.3-0.5
						c0-0.2,0.2-0.4,0.5-0.3l7.5,1.2c0.2,0,0.4,0.2,0.3,0.5C213.2,223.3,213.1,223.5,212.9,223.5z"/>
				</g>
			</g>
		</g>
	</g>
	<g id="Shaved_Head_1_">
		<g>
			
				<line fill="none" stroke="#414042" stroke-linecap="round" stroke-miterlimit="10" stroke-dasharray="2,3,2,3,2,3" x1="276.9" y1="226.1" x2="276.9" y2="148.3"/>
		</g>
		<g>
			<g>
				<path fill="#8DC63F" d="M276.9,233.8c-4.3,0-7.7-3.5-7.7-7.7s3.5-7.7,7.7-7.7s7.7,3.5,7.7,7.7S281.1,233.8,276.9,233.8z"/>
				<g>
					<path fill="#FFFFFF" d="M276.9,219.8c3.5,0,6.3,2.8,6.3,6.3c0,3.5-2.8,6.3-6.3,6.3s-6.3-2.8-6.3-6.3
						C270.5,222.6,273.4,219.8,276.9,219.8 M276.9,217c-5,0-9.2,4.1-9.2,9.1c0,5,4.1,9.2,9.2,9.2c5,0,9.1-4.1,9.1-9.2
						C286,221.1,281.9,217,276.9,217L276.9,217z"/>
				</g>
			</g>
		</g>
		<g>
			<rect x="168" y="148.5" fill="none" width="104.3" height="13.4"/>
			<text transform="matrix(1 0 0 1 170.54 158.9688)" fill="#4ABC94" font-family="'Cabin-Medium'" font-size="14">Shaved My Head</text>
			<rect x="183.1" y="164.8" fill="none" width="89.2" height="6.7"/>
			<text transform="matrix(1 0 0 1 224.2637 170.1641)" fill="#414042" font-family="'Arvo'" font-size="7">Raising £900+</text>
			<rect x="236.5" y="174.8" fill="none" width="35.9" height="20.2"/>
			<text transform="matrix(1 0 0 1 260.6653 180.79)" fill="#414042" font-family="'Cabin-Bold'" font-size="8">09’</text>
		</g>
		<g>
			<g>
				<g>
					<path fill="#4ABC94" d="M276.9,240.1c-7.7,0-14-6.3-14-14c0-7.7,6.3-14,14-14c7.7,0,14,6.3,14,14
						C290.9,233.9,284.6,240.1,276.9,240.1z"/>
				</g>
				<g>
					<g>
						<path fill="#FFFFFF" d="M276.9,213.2c7.2,0,13,5.8,13,13c0,7.2-5.8,13-13,13c-7.2,0-13-5.8-13-13
							C263.9,219,269.7,213.2,276.9,213.2 M276.9,211c-8.3,0-15.1,6.8-15.1,15.1c0,8.3,6.8,15.1,15.1,15.1c8.3,0,15.1-6.8,15.1-15.1
							C292,217.8,285.2,211,276.9,211L276.9,211z"/>
					</g>
				</g>
			</g>
			<g>
				<defs>
					<circle id="SVGID_23_" cx="276.9" cy="226.1" r="13"/>
				</defs>
				<clipPath id="SVGID_24_">
					<use xlink:href="#SVGID_23_"  overflow="visible"/>
				</clipPath>
				<g clip-path="url(#SVGID_24_)">
					<g>
						<path fill="#F1F2F2" d="M283.5,234.4h-26.1c-0.4,0-0.7-0.4-0.7-0.8v-14.7c0-0.4,0.3-0.8,0.7-0.8h26.1c0.4,0,0.7,0.4,0.7,0.8
							v14.7C284.2,234,283.9,234.4,283.5,234.4z M257.4,218.4c-0.2,0-0.4,0.2-0.4,0.4v14.7c0,0.2,0.2,0.4,0.4,0.4h26.1
							c0.2,0,0.4-0.2,0.4-0.4v-14.7c0-0.2-0.2-0.4-0.4-0.4H257.4z"/>
					</g>
					<g>
						<ellipse fill-rule="evenodd" clip-rule="evenodd" fill="#F1F2F2" cx="270.4" cy="226.2" rx="4.8" ry="6.1"/>
					</g>
					<g>
						<path fill="#4ABC94" d="M268.4,229c0.5-0.9,0.5-1.7,0.4-2.4h-0.4c-0.1,0-0.2-0.1-0.2-0.2v-0.1c0-0.1,0.1-0.2,0.2-0.2h0.3
							c-0.1-0.3-0.3-0.9-0.3-1.5c0-1.2,0.9-2,2-2c0.8,0,1.3,0.5,1.6,0.7c0.1,0.1,0.1,0.2,0,0.2l-0.3,0.4c-0.1,0.1-0.2,0.1-0.3,0
							c0,0-0.5-0.5-1-0.5c-0.6,0-1,0.4-1,1.1c0,0.6,0.3,1.2,0.3,1.5h1.3c0.1,0,0.2,0.1,0.2,0.2v0.1c0,0.1-0.1,0.2-0.2,0.2h-1.2
							c0.1,0.5,0.1,1.3-0.2,1.9h2.1c0.1,0,0.2,0.1,0.2,0.2v0.5c0,0.1-0.1,0.2-0.2,0.2h-3c-0.1,0-0.2-0.1-0.2-0.2V229z"/>
					</g>
				</g>
			</g>
		</g>
	</g>
</g>
<g id="Build_Help" display="none">
	<g display="inline">
	</g>
</g>
<g id="iPad">
</g>
<g id="Template_1_">
</g>
<g id="iPhone">
</g>
</svg>
