<?xml version="1.0" encoding="utf-8"?>
<!-- Generator: Adobe Illustrator 17.0.0, SVG Export Plug-In . SVG Version: 6.00 Build 0)  -->
<!DOCTYPE svg PUBLIC "-//W3C//DTD SVG 1.1//EN" "http://www.w3.org/Graphics/SVG/1.1/DTD/svg11.dtd">
<svg version="1.1" xmlns="http://www.w3.org/2000/svg" xmlns:xlink="http://www.w3.org/1999/xlink" x="0px" y="0px" width="499px"
	 height="740.4px" viewBox="0 0 499 740.4" enable-background="new 0 0 499 740.4" xml:space="preserve">
<g id="Print">
</g>
<g id="Build_Help" display="none">
</g>
<g id="iPad">
	<g id="Timeline">
		
			<line fill="none" stroke="#D1D3D4" stroke-width="4.252" stroke-linecap="round" stroke-miterlimit="10" x1="241.8" y1="37.8" x2="241.8" y2="689.3"/>
		<circle fill="#D1D2D4" cx="241.8" cy="696.9" r="2.3"/>
		<circle fill="#D1D2D4" cx="241.8" cy="704.4" r="2.3"/>
		<circle fill="#D1D2D4" cx="241.8" cy="711.9" r="2.3"/>
	</g>
	<g id="Mixtable">
		<g>
			
				<line fill="none" stroke="#414042" stroke-linecap="round" stroke-miterlimit="10" stroke-dasharray="2,3,2,3,2,3" x1="208.3" y1="649" x2="241.9" y2="649"/>
		</g>
		<g>
			<rect x="118.9" y="641.6" fill="none" width="84.9" height="13.4"/>
			<text transform="matrix(1 0 0 1 152.4116 652.062)" fill="#4CBAC5" font-family="'Cabin-Medium'" font-size="14">Mixtable</text>
			<rect x="114.5" y="657.9" fill="none" width="89.2" height="15.9"/>
			<text transform="matrix(1 0 0 1 148.1736 663.2573)"><tspan x="0" y="0" fill="#414042" font-family="'Arvo'" font-size="7">UX/UI Designer,</tspan><tspan x="28.1" y="8.4" fill="#414042" font-family="'Arvo'" font-size="7">Munich</tspan></text>
			<rect x="167.9" y="676.8" fill="none" width="35.9" height="20.2"/>
			<text transform="matrix(1 0 0 1 182.498 682.8002)" fill="#414042" font-family="'Cabin-Bold'" font-size="8">13’-14’</text>
		</g>
		<g>
			<g>
				<g>
					<path fill="#4CBAC5" d="M241.8,663.2c-7.8,0-14.1-6.3-14.1-14.1c0-7.8,6.3-14.1,14.1-14.1c7.8,0,14.1,6.3,14.1,14.1
						C255.9,656.8,249.6,663.2,241.8,663.2z"/>
				</g>
				<g>
					<g>
						<path fill="#FFFFFF" d="M241.8,635.9c7.2,0,13.1,5.9,13.1,13.1c0,7.2-5.9,13.1-13.1,13.1c-7.2,0-13.1-5.9-13.1-13.1
							C228.7,641.8,234.6,635.9,241.8,635.9 M241.8,633.8c-8.4,0-15.2,6.8-15.2,15.2c0,8.4,6.8,15.2,15.2,15.2
							c8.4,0,15.2-6.8,15.2-15.2C257,640.6,250.2,633.8,241.8,633.8L241.8,633.8z"/>
					</g>
				</g>
			</g>
			<g>
				<defs>
					<circle id="SVGID_37_" cx="241.8" cy="649" r="13.1"/>
				</defs>
				<clipPath id="SVGID_2_">
					<use xlink:href="#SVGID_37_"  overflow="visible"/>
				</clipPath>
				<g clip-path="url(#SVGID_2_)">
					<g>
						<path fill="#F1F2F2" d="M244.3,649.8h-5c-0.6,0-1.2-0.5-1.2-1.2v-2.8c0-0.6,0.5-1.2,1.2-1.2h5c0.6,0,1.2,0.5,1.2,1.2v2.8
							C245.4,649.3,244.9,649.8,244.3,649.8z M239.3,645.5c-0.2,0-0.4,0.2-0.4,0.4v2.8c0,0.2,0.2,0.4,0.4,0.4h5
							c0.2,0,0.4-0.2,0.4-0.4v-2.8c0-0.2-0.2-0.4-0.4-0.4H239.3z"/>
					</g>
					<g>
						<path fill-rule="evenodd" clip-rule="evenodd" fill="#4CBAC5" d="M252.6,661.2c0,0.8-0.6,1.4-1.4,1.4h-18.8
							c-0.8,0-1.4-0.6-1.4-1.4v-12.6c0-0.8,0.6-1.4,1.4-1.4h18.8c0.8,0,1.4,0.6,1.4,1.4V661.2z"/>
						<path fill="#F1F2F2" d="M251.2,662.9h-18.8c-0.9,0-1.7-0.8-1.7-1.7v-12.6c0-0.9,0.8-1.7,1.7-1.7h18.8c0.9,0,1.7,0.8,1.7,1.7
							v12.6C252.9,662.2,252.1,662.9,251.2,662.9z M232.4,647.5c-0.6,0-1.2,0.5-1.2,1.2v12.6c0,0.6,0.5,1.2,1.2,1.2h18.8
							c0.6,0,1.2-0.5,1.2-1.2v-12.6c0-0.6-0.5-1.2-1.2-1.2H232.4z"/>
					</g>
					<g>
						<line fill="#6DB6D5" x1="231" y1="651.3" x2="252.6" y2="651.3"/>
						<rect x="231" y="651.1" fill="#F1F2F2" width="21.6" height="0.5"/>
					</g>
					<g>
						<path fill="#F1F2F2" d="M244.2,652.1c0,0.2-0.2,0.4-0.4,0.4h-4c-0.2,0-0.4-0.2-0.4-0.4v-1.5c0-0.2,0.2-0.4,0.4-0.4h4
							c0.2,0,0.4,0.2,0.4,0.4V652.1z"/>
					</g>
				</g>
			</g>
		</g>
	</g>
	<g id="Kennedys">
		<g>
			
				<line fill="none" stroke="#414042" stroke-linecap="round" stroke-miterlimit="10" stroke-dasharray="2,3,2,3,2,3" x1="251.7" y1="593.1" x2="275.1" y2="593.1"/>
		</g>
		<g>
			<rect x="279.3" y="586.2" fill="none" width="104.3" height="13.4"/>
			<text transform="matrix(1 0 0 1 279.3132 596.7156)" fill="#4ABC94" font-family="'Cabin-Medium'" font-size="14">Kennedy’s Bar</text>
			<rect x="279.3" y="602.6" fill="none" width="89.2" height="14.6"/>
			<text transform="matrix(1 0 0 1 279.313 607.9109)"><tspan x="0" y="0" fill="#414042" font-family="'Arvo'" font-size="7">Glassie in an Irish bar</tspan><tspan x="0" y="8.4" fill="#414042" font-family="'Arvo'" font-size="7">while in Munich</tspan></text>
			<rect x="279.3" y="621.3" fill="none" width="35.9" height="20.2"/>
			<text transform="matrix(1 0 0 1 279.3132 627.3348)" fill="#414042" font-family="'Cabin-Bold'" font-size="8">13’-14’</text>
		</g>
		<g>
			<g>
				<g>
					<path fill="#4ABC94" d="M241.9,607.1c-7.7,0-14-6.3-14-14c0-7.7,6.3-14,14-14c7.7,0,14,6.3,14,14
						C256,600.8,249.7,607.1,241.9,607.1z"/>
				</g>
				<g>
					<g>
						<path fill="#FFFFFF" d="M241.9,580.1c7.2,0,13,5.8,13,13c0,7.2-5.8,13-13,13c-7.2,0-13-5.8-13-13
							C229,586,234.8,580.1,241.9,580.1 M241.9,578c-8.3,0-15.1,6.8-15.1,15.1s6.8,15.1,15.1,15.1c8.3,0,15.1-6.8,15.1-15.1
							S250.3,578,241.9,578L241.9,578z"/>
					</g>
				</g>
			</g>
			<g>
				<defs>
					<circle id="SVGID_39_" cx="241.9" cy="593.1" r="13"/>
				</defs>
				<clipPath id="SVGID_4_">
					<use xlink:href="#SVGID_39_"  overflow="visible"/>
				</clipPath>
				<g clip-path="url(#SVGID_4_)">
					<g>
						<path fill="#F1F2F2" d="M248.6,601.4h-26.1c-0.4,0-0.7-0.4-0.7-0.8v-14.7c0-0.4,0.3-0.8,0.7-0.8h26.1c0.4,0,0.7,0.4,0.7,0.8
							v14.7C249.3,601,249,601.4,248.6,601.4z M222.5,585.4c-0.2,0-0.4,0.2-0.4,0.4v14.7c0,0.2,0.2,0.4,0.4,0.4h26.1
							c0.2,0,0.4-0.2,0.4-0.4v-14.7c0-0.2-0.2-0.4-0.4-0.4H222.5z"/>
					</g>
					<g>
						<ellipse fill-rule="evenodd" clip-rule="evenodd" fill="#F1F2F2" cx="235.5" cy="593.2" rx="4.8" ry="6.1"/>
					</g>
					<g>
						<path fill="#4ABC94" d="M233.5,596c0.5-0.9,0.5-1.7,0.4-2.4h-0.4c-0.1,0-0.2-0.1-0.2-0.2v-0.1c0-0.1,0.1-0.2,0.2-0.2h0.3
							c-0.1-0.3-0.3-0.9-0.3-1.5c0-1.2,0.9-2,2-2c0.8,0,1.3,0.5,1.6,0.7c0.1,0.1,0.1,0.2,0,0.2l-0.3,0.4c-0.1,0.1-0.2,0.1-0.3,0
							c0,0-0.5-0.5-1-0.5c-0.6,0-1,0.4-1,1.1c0,0.6,0.3,1.2,0.3,1.5h1.3c0.1,0,0.2,0.1,0.2,0.2v0.1c0,0.1-0.1,0.2-0.2,0.2h-1.2
							c0.1,0.5,0.1,1.3-0.2,1.9h2.1c0.1,0,0.2,0.1,0.2,0.2v0.5c0,0.1-0.1,0.2-0.2,0.2h-3c-0.1,0-0.2-0.1-0.2-0.2V596z"/>
					</g>
				</g>
			</g>
		</g>
	</g>
	<g id="Brunel">
		<g>
			
				<line fill="none" stroke="#414042" stroke-linecap="round" stroke-miterlimit="10" stroke-dasharray="2,3,2,3,2,3" x1="208.3" y1="537.6" x2="233.4" y2="537.6"/>
		</g>
		<g>
			<rect x="94.7" y="531.3" fill="none" width="109.1" height="13.4"/>
			<text transform="matrix(1 0 0 1 98.9767 541.8041)" fill="#993680" font-family="'Cabin-Medium'" font-size="14">Brunel University</text>
			<rect x="114.5" y="547.7" fill="none" width="89.2" height="15.9"/>
			<text transform="matrix(1 0 0 1 144.7898 552.9994)"><tspan x="0" y="0" fill="#414042" font-family="'Arvo'" font-size="7">Industrial Design </tspan><tspan x="0.2" y="8.4" fill="#414042" font-family="'Arvo'" font-size="7">&amp; Technology BA</tspan></text>
			<rect x="167.9" y="566.5" fill="none" width="35.9" height="20.2"/>
			<text transform="matrix(1 0 0 1 182.4102 572.5433)" fill="#414042" font-family="'Cabin-Bold'" font-size="8">11’- 15’</text>
		</g>
		<g>
			<g>
				<g>
					<path fill="#BA1D80" d="M241.7,545.4c-4.3,0-7.7-3.5-7.7-7.7s3.5-7.7,7.7-7.7s7.7,3.5,7.7,7.7S245.9,545.4,241.7,545.4z"/>
					<g>
						<path fill="#FFFFFF" d="M241.7,531.3c3.5,0,6.3,2.8,6.3,6.3c0,3.5-2.8,6.3-6.3,6.3c-3.5,0-6.3-2.8-6.3-6.3
							C235.4,534.1,238.2,531.3,241.7,531.3 M241.7,528.5c-5,0-9.2,4.1-9.2,9.1c0,5,4.1,9.2,9.2,9.2c5,0,9.1-4.1,9.1-9.2
							C250.8,532.6,246.7,528.5,241.7,528.5L241.7,528.5z"/>
					</g>
				</g>
			</g>
			<g>
				<g>
					<g>
						<path fill="#993680" d="M241.7,552c-7.9,0-14.3-6.4-14.3-14.3c0-7.9,6.4-14.3,14.3-14.3c7.9,0,14.3,6.4,14.3,14.3
							C256,545.5,249.6,552,241.7,552z"/>
					</g>
					<g>
						<path fill="#FFFFFF" d="M241.7,524.4c7.3,0,13.3,5.9,13.3,13.3c0,7.3-5.9,13.3-13.3,13.3c-7.3,0-13.3-5.9-13.3-13.3
							C228.4,530.3,234.3,524.4,241.7,524.4 M241.7,522.2c-8.5,0-15.4,6.9-15.4,15.4c0,8.5,6.9,15.4,15.4,15.4
							c8.5,0,15.4-6.9,15.4-15.4C257.1,529.1,250.2,522.2,241.7,522.2L241.7,522.2z"/>
					</g>
				</g>
				<g>
					<g>
						<path fill="#F1F2F2" d="M241.7,544.5c-3.6,0-6.7-1.9-6.7-3.5v-5.3c0-0.2,0.2-0.4,0.4-0.4H248c0.2,0,0.4,0.2,0.4,0.4v5.3
							C248.4,542.6,245.3,544.5,241.7,544.5z M235.8,536.1v4.9c0,0.9,2.5,2.7,5.9,2.7c3.4,0,5.9-1.8,5.9-2.7v-4.9H235.8z"/>
					</g>
					<g>
						<line fill="#BA1D80" x1="234.1" y1="534" x2="234.1" y2="540.9"/>
						<path fill="#F1F2F2" d="M234.1,541.2c-0.2,0-0.3-0.1-0.3-0.3V534c0-0.2,0.1-0.3,0.3-0.3s0.3,0.1,0.3,0.3v6.9
							C234.4,541.1,234.2,541.2,234.1,541.2z"/>
					</g>
					<g>
						<polygon fill="#993680" points="241.7,539.5 231.3,534.5 241.7,531.1 252.1,534.5 						"/>
						<path fill="#F1F2F2" d="M241.7,539.9c-0.1,0-0.1,0-0.2,0l-10.4-5c-0.1-0.1-0.2-0.2-0.2-0.4c0-0.2,0.1-0.3,0.3-0.4l10.4-3.4
							c0.1,0,0.2,0,0.2,0l10.4,3.4c0.2,0,0.3,0.2,0.3,0.4c0,0.2-0.1,0.3-0.2,0.4l-10.4,5C241.8,539.9,241.7,539.9,241.7,539.9z
							 M232.3,534.6l9.3,4.5l9.3-4.5l-9.3-3L232.3,534.6z"/>
					</g>
					<g>
						<line fill="#BA1D80" x1="241.5" y1="534.6" x2="234.1" y2="533.3"/>
						<path fill="#F1F2F2" d="M241.5,535C241.5,535,241.5,535,241.5,535l-7.5-1.2c-0.2,0-0.4-0.2-0.3-0.5c0-0.2,0.2-0.4,0.5-0.3
							l7.5,1.2c0.2,0,0.4,0.2,0.3,0.5C241.9,534.8,241.7,535,241.5,535z"/>
					</g>
				</g>
			</g>
		</g>
	</g>
	<g id="South_Africa_2">
		<g>
			
				<line fill="none" stroke="#414042" stroke-linecap="round" stroke-miterlimit="10" stroke-dasharray="2,3,2,3,2,3" x1="236.2" y1="482.2" x2="275.1" y2="482.2"/>
		</g>
		<g>
			<rect x="279.6" y="475.4" fill="none" width="103.8" height="13.5"/>
			<text transform="matrix(1 0 0 1 279.5745 485.8782)" fill="#4CBAC5" font-family="'Cabin-Medium'" font-size="14">South Africa</text>
			<rect x="279.6" y="491.9" fill="none" width="106.3" height="15.9"/>
			<text transform="matrix(1 0 0 1 279.5751 497.1927)"><tspan x="0" y="0" fill="#414042" font-family="'Arvo'" font-size="7">Odd-job charity work in a </tspan><tspan x="0" y="8.4" fill="#414042" font-family="'Arvo'" font-size="7">township community. </tspan></text>
			<rect x="279.6" y="510.7" fill="none" width="35.9" height="20.2"/>
			<text transform="matrix(1 0 0 1 279.5748 516.7366)" fill="#414042" font-family="'Cabin-Bold'" font-size="8">11’</text>
		</g>
		<g>
			<g>
				<g>
					<path fill="#4CBAC5" d="M241.7,496.4c-7.8,0-14.1-6.3-14.1-14.1c0-7.8,6.3-14.1,14.1-14.1c7.8,0,14.1,6.3,14.1,14.1
						C255.8,490,249.5,496.4,241.7,496.4z"/>
				</g>
				<g>
					<g>
						<path fill="#FFFFFF" d="M241.7,469.1c7.2,0,13.1,5.9,13.1,13.1c0,7.2-5.9,13.1-13.1,13.1c-7.2,0-13.1-5.9-13.1-13.1
							C228.6,475,234.4,469.1,241.7,469.1 M241.7,467c-8.4,0-15.2,6.8-15.2,15.2c0,8.4,6.8,15.2,15.2,15.2c8.4,0,15.2-6.8,15.2-15.2
							C256.9,473.9,250,467,241.7,467L241.7,467z"/>
					</g>
				</g>
			</g>
			<g>
				<defs>
					<circle id="SVGID_41_" cx="241.7" cy="482.2" r="13.1"/>
				</defs>
				<clipPath id="SVGID_6_">
					<use xlink:href="#SVGID_41_"  overflow="visible"/>
				</clipPath>
				<g clip-path="url(#SVGID_6_)">
					<g>
						<path fill="#F1F2F2" d="M244.2,483h-5c-0.6,0-1.2-0.5-1.2-1.2v-2.8c0-0.6,0.5-1.2,1.2-1.2h5c0.6,0,1.2,0.5,1.2,1.2v2.8
							C245.3,482.5,244.8,483,244.2,483z M239.2,478.7c-0.2,0-0.4,0.2-0.4,0.4v2.8c0,0.2,0.2,0.4,0.4,0.4h5c0.2,0,0.4-0.2,0.4-0.4
							v-2.8c0-0.2-0.2-0.4-0.4-0.4H239.2z"/>
					</g>
					<g>
						<path fill-rule="evenodd" clip-rule="evenodd" fill="#4CBAC5" d="M252.5,494.5c0,0.8-0.6,1.4-1.4,1.4h-18.8
							c-0.8,0-1.4-0.6-1.4-1.4v-12.6c0-0.8,0.6-1.4,1.4-1.4h18.8c0.8,0,1.4,0.6,1.4,1.4V494.5z"/>
						<path fill="#F1F2F2" d="M251.1,496.1h-18.8c-0.9,0-1.7-0.8-1.7-1.7v-12.6c0-0.9,0.8-1.7,1.7-1.7h18.8c0.9,0,1.7,0.8,1.7,1.7
							v12.6C252.8,495.4,252,496.1,251.1,496.1z M232.3,480.7c-0.6,0-1.2,0.5-1.2,1.2v12.6c0,0.6,0.5,1.2,1.2,1.2h18.8
							c0.6,0,1.2-0.5,1.2-1.2v-12.6c0-0.6-0.5-1.2-1.2-1.2H232.3z"/>
					</g>
					<g>
						<line fill="#6DB6D5" x1="230.8" y1="484.5" x2="252.5" y2="484.5"/>
						<rect x="230.8" y="484.3" fill="#F1F2F2" width="21.6" height="0.5"/>
					</g>
					<g>
						<path fill="#F1F2F2" d="M244.1,485.3c0,0.2-0.2,0.4-0.4,0.4h-4c-0.2,0-0.4-0.2-0.4-0.4v-1.5c0-0.2,0.2-0.4,0.4-0.4h4
							c0.2,0,0.4,0.2,0.4,0.4V485.3z"/>
					</g>
				</g>
			</g>
		</g>
	</g>
	<g id="Orb_360">
		<g>
			
				<line fill="none" stroke="#414042" stroke-linecap="round" stroke-miterlimit="10" stroke-dasharray="2,3,2,3,2,3" x1="208.3" y1="426.6" x2="239.1" y2="426.6"/>
		</g>
		<g>
			<g>
				<path fill="#4ABC94" d="M241.8,440.7c-7.7,0-14-6.3-14-14s6.3-14,14-14c7.7,0,14,6.3,14,14S249.5,440.7,241.8,440.7z"/>
			</g>
			<g>
				<g>
					<path fill="#FFFFFF" d="M241.8,413.7c7.2,0,13,5.8,13,13c0,7.2-5.8,13-13,13c-7.2,0-13-5.8-13-13
						C228.8,419.5,234.6,413.7,241.8,413.7 M241.8,411.5c-8.3,0-15.1,6.8-15.1,15.1s6.8,15.1,15.1,15.1c8.3,0,15.1-6.8,15.1-15.1
						S250.1,411.5,241.8,411.5L241.8,411.5z"/>
				</g>
			</g>
			<g>
				<defs>
					<circle id="SVGID_43_" cx="241.8" cy="426.6" r="13"/>
				</defs>
				<clipPath id="SVGID_8_">
					<use xlink:href="#SVGID_43_"  overflow="visible"/>
				</clipPath>
				<g clip-path="url(#SVGID_8_)">
					<g>
						<path fill="#F1F2F2" d="M248.4,434.9h-26.1c-0.4,0-0.7-0.4-0.7-0.8v-14.7c0-0.4,0.3-0.8,0.7-0.8h26.1c0.4,0,0.7,0.4,0.7,0.8
							v14.7C249.2,434.6,248.8,434.9,248.4,434.9z M222.3,419c-0.2,0-0.4,0.2-0.4,0.4v14.7c0,0.2,0.2,0.4,0.4,0.4h26.1
							c0.2,0,0.4-0.2,0.4-0.4v-14.7c0-0.2-0.2-0.4-0.4-0.4H222.3z"/>
					</g>
					<g>
						<ellipse fill-rule="evenodd" clip-rule="evenodd" fill="#F1F2F2" cx="235.4" cy="426.7" rx="4.8" ry="6.1"/>
					</g>
					<g>
						<path fill="#4ABC94" d="M233.4,429.5c0.5-0.9,0.5-1.7,0.4-2.4h-0.4c-0.1,0-0.2-0.1-0.2-0.2v-0.1c0-0.1,0.1-0.2,0.2-0.2h0.3
							c-0.1-0.3-0.3-0.9-0.3-1.5c0-1.2,0.9-2,2-2c0.8,0,1.3,0.5,1.6,0.7c0.1,0.1,0.1,0.2,0,0.2l-0.3,0.4c-0.1,0.1-0.2,0.1-0.3,0
							c0,0-0.5-0.5-1-0.5c-0.6,0-1,0.4-1,1.1c0,0.6,0.3,1.2,0.3,1.5h1.3c0.1,0,0.2,0.1,0.2,0.2v0.1c0,0.1-0.1,0.2-0.2,0.2h-1.2
							c0.1,0.5,0.1,1.3-0.2,1.9h2.1c0.1,0,0.2,0.1,0.2,0.2v0.5c0,0.1-0.1,0.2-0.2,0.2h-3c-0.1,0-0.2-0.1-0.2-0.2V429.5z"/>
					</g>
				</g>
			</g>
		</g>
		<g>
			<rect x="118.9" y="419.4" fill="none" width="84.9" height="13.3"/>
			<text transform="matrix(1 0 0 1 151.9498 429.9274)" fill="#4ABC94" font-family="'Cabin-Medium'" font-size="14">Orb 360 </text>
			<rect x="114.5" y="435.7" fill="none" width="89.2" height="15.9"/>
			<text transform="matrix(1 0 0 1 128.1346 441.0026)"><tspan x="0" y="0" fill="#414042" font-family="'Arvo'" font-size="7">Zorb ball operator and </tspan><tspan x="6.5" y="8.4" fill="#414042" font-family="'Arvo'" font-size="7">head-cam specialist.</tspan></text>
			<rect x="167.9" y="454.5" fill="none" width="35.9" height="20.2"/>
			<text transform="matrix(1 0 0 1 196.337 460.5465)" fill="#414042" font-family="'Cabin-Bold'" font-size="8">11’</text>
		</g>
	</g>
	<g id="Yr_Book">
		<g>
			<rect x="279.6" y="358.2" fill="none" width="103.8" height="26.5"/>
			<text transform="matrix(1 0 0 1 279.5752 368.7498)"><tspan x="0" y="0" fill="#4CBAC5" font-family="'Cabin-Medium'" font-size="14">GCSE Yearbook</tspan><tspan x="0" y="13" fill="#4CBAC5" font-family="'Cabin-Medium'" font-size="14">Photographer</tspan></text>
			<rect x="279.6" y="387.7" fill="none" width="106.3" height="15.9"/>
			<text transform="matrix(1 0 0 1 279.5751 393.0379)"><tspan x="0" y="0" fill="#414042" font-family="'Arvo'" font-size="7">The school couldn’t afford a </tspan><tspan x="0" y="8.4" fill="#414042" font-family="'Arvo'" font-size="7">professional, so I stepped in.</tspan></text>
			<rect x="279.6" y="406.6" fill="none" width="35.9" height="20.2"/>
			<text transform="matrix(1 0 0 1 279.5748 412.5819)" fill="#414042" font-family="'Cabin-Bold'" font-size="8">09’+10’</text>
		</g>
		<g>
			<g>
				
					<line fill="none" stroke="#414042" stroke-linecap="round" stroke-miterlimit="10" stroke-dasharray="2,3,2,3,2,3" x1="241.8" y1="371.4" x2="275.1" y2="371.4"/>
			</g>
			<g>
				<g>
					<path fill="#4CBAC5" d="M241.8,385.5c-7.8,0-14.1-6.3-14.1-14.1c0-7.8,6.3-14.1,14.1-14.1c7.8,0,14.1,6.3,14.1,14.1
						C255.9,379.2,249.6,385.5,241.8,385.5z"/>
				</g>
				<g>
					<g>
						<path fill="#FFFFFF" d="M241.8,358.2c7.2,0,13.1,5.9,13.1,13.1c0,7.2-5.9,13.1-13.1,13.1c-7.2,0-13.1-5.9-13.1-13.1
							C228.7,364.1,234.6,358.2,241.8,358.2 M241.8,356.2c-8.4,0-15.2,6.8-15.2,15.2c0,8.4,6.8,15.2,15.2,15.2
							c8.4,0,15.2-6.8,15.2-15.2C257,363,250.2,356.2,241.8,356.2L241.8,356.2z"/>
					</g>
				</g>
			</g>
			<g>
				<defs>
					<circle id="SVGID_45_" cx="241.8" cy="371.4" r="13.1"/>
				</defs>
				<clipPath id="SVGID_10_">
					<use xlink:href="#SVGID_45_"  overflow="visible"/>
				</clipPath>
				<g clip-path="url(#SVGID_10_)">
					<g>
						<path fill="#F1F2F2" d="M244.3,372.1h-5c-0.6,0-1.2-0.5-1.2-1.2v-2.8c0-0.6,0.5-1.2,1.2-1.2h5c0.6,0,1.2,0.5,1.2,1.2v2.8
							C245.4,371.6,244.9,372.1,244.3,372.1z M239.3,367.8c-0.2,0-0.4,0.2-0.4,0.4v2.8c0,0.2,0.2,0.4,0.4,0.4h5
							c0.2,0,0.4-0.2,0.4-0.4v-2.8c0-0.2-0.2-0.4-0.4-0.4H239.3z"/>
					</g>
					<g>
						<path fill-rule="evenodd" clip-rule="evenodd" fill="#4CBAC5" d="M252.6,383.6c0,0.8-0.6,1.4-1.4,1.4h-18.8
							c-0.8,0-1.4-0.6-1.4-1.4V371c0-0.8,0.6-1.4,1.4-1.4h18.8c0.8,0,1.4,0.6,1.4,1.4V383.6z"/>
						<path fill="#F1F2F2" d="M251.2,385.2h-18.8c-0.9,0-1.7-0.8-1.7-1.7V371c0-0.9,0.8-1.7,1.7-1.7h18.8c0.9,0,1.7,0.8,1.7,1.7
							v12.6C252.9,384.5,252.1,385.2,251.2,385.2z M232.4,369.8c-0.6,0-1.2,0.5-1.2,1.2v12.6c0,0.6,0.5,1.2,1.2,1.2h18.8
							c0.6,0,1.2-0.5,1.2-1.2V371c0-0.6-0.5-1.2-1.2-1.2H232.4z"/>
					</g>
					<g>
						<line fill="#6DB6D5" x1="231" y1="373.6" x2="252.6" y2="373.6"/>
						<rect x="231" y="373.4" fill="#F1F2F2" width="21.6" height="0.5"/>
					</g>
					<g>
						<path fill="#F1F2F2" d="M244.2,374.4c0,0.2-0.2,0.4-0.4,0.4h-4c-0.2,0-0.4-0.2-0.4-0.4v-1.5c0-0.2,0.2-0.4,0.4-0.4h4
							c0.2,0,0.4,0.2,0.4,0.4V374.4z"/>
					</g>
				</g>
			</g>
		</g>
	</g>
	<g id="South_Africa_1">
		<g>
			
				<line fill="none" stroke="#414042" stroke-linecap="round" stroke-miterlimit="10" stroke-dasharray="2,3,2,3,2,3" x1="208.3" y1="316" x2="241.8" y2="316"/>
		</g>
		<g>
			<g>
				<g>
					<path fill="#4CBAC5" d="M241.8,330.1c-7.8,0-14.1-6.3-14.1-14.1c0-7.8,6.3-14.1,14.1-14.1c7.8,0,14.1,6.3,14.1,14.1
						C255.9,323.8,249.6,330.1,241.8,330.1z"/>
				</g>
				<g>
					<g>
						<path fill="#FFFFFF" d="M241.8,302.9c7.2,0,13.1,5.9,13.1,13.1c0,7.2-5.9,13.1-13.1,13.1c-7.2,0-13.1-5.9-13.1-13.1
							C228.7,308.7,234.6,302.9,241.8,302.9 M241.8,300.8c-8.4,0-15.2,6.8-15.2,15.2c0,8.4,6.8,15.2,15.2,15.2
							c8.4,0,15.2-6.8,15.2-15.2C257,307.6,250.2,300.8,241.8,300.8L241.8,300.8z"/>
					</g>
				</g>
			</g>
			<g>
				<defs>
					<circle id="SVGID_47_" cx="241.8" cy="316" r="13.1"/>
				</defs>
				<clipPath id="SVGID_12_">
					<use xlink:href="#SVGID_47_"  overflow="visible"/>
				</clipPath>
				<g clip-path="url(#SVGID_12_)">
					<g>
						<path fill="#F1F2F2" d="M244.3,316.8h-5c-0.6,0-1.2-0.5-1.2-1.2v-2.8c0-0.6,0.5-1.2,1.2-1.2h5c0.6,0,1.2,0.5,1.2,1.2v2.8
							C245.4,316.3,244.9,316.8,244.3,316.8z M239.3,312.4c-0.2,0-0.4,0.2-0.4,0.4v2.8c0,0.2,0.2,0.4,0.4,0.4h5
							c0.2,0,0.4-0.2,0.4-0.4v-2.8c0-0.2-0.2-0.4-0.4-0.4H239.3z"/>
					</g>
					<g>
						<path fill-rule="evenodd" clip-rule="evenodd" fill="#4CBAC5" d="M252.6,328.2c0,0.8-0.6,1.4-1.4,1.4h-18.8
							c-0.8,0-1.4-0.6-1.4-1.4v-12.6c0-0.8,0.6-1.4,1.4-1.4h18.8c0.8,0,1.4,0.6,1.4,1.4V328.2z"/>
						<path fill="#F1F2F2" d="M251.2,329.9h-18.8c-0.9,0-1.7-0.8-1.7-1.7v-12.6c0-0.9,0.8-1.7,1.7-1.7h18.8c0.9,0,1.7,0.8,1.7,1.7
							v12.6C252.9,329.1,252.1,329.9,251.2,329.9z M232.4,314.5c-0.6,0-1.2,0.5-1.2,1.2v12.6c0,0.6,0.5,1.2,1.2,1.2h18.8
							c0.6,0,1.2-0.5,1.2-1.2v-12.6c0-0.6-0.5-1.2-1.2-1.2H232.4z"/>
					</g>
					<g>
						<line fill="#6DB6D5" x1="231" y1="318.3" x2="252.6" y2="318.3"/>
						<rect x="231" y="318" fill="#F1F2F2" width="21.6" height="0.5"/>
					</g>
					<g>
						<path fill="#F1F2F2" d="M244.2,319c0,0.2-0.2,0.4-0.4,0.4h-4c-0.2,0-0.4-0.2-0.4-0.4v-1.5c0-0.2,0.2-0.4,0.4-0.4h4
							c0.2,0,0.4,0.2,0.4,0.4V319z"/>
					</g>
				</g>
			</g>
		</g>
		<g>
			<rect x="118.9" y="309.3" fill="none" width="84.9" height="13.4"/>
			<text transform="matrix(1 0 0 1 130.5865 319.7512)" fill="#4CBAC5" font-family="'Cabin-Medium'" font-size="14">South Africa</text>
			<rect x="114.5" y="325.6" fill="none" width="89.2" height="15.9"/>
			<text transform="matrix(1 0 0 1 134.4842 330.9456)"><tspan x="0" y="0" fill="#414042" font-family="'Arvo'" font-size="7">Teaching secondary </tspan><tspan x="2.5" y="8.4" fill="#414042" font-family="'Arvo'" font-size="7">school age children</tspan></text>
			<rect x="167.9" y="344.5" fill="none" width="35.9" height="20.2"/>
			<text transform="matrix(1 0 0 1 192.0811 350.4895)" fill="#414042" font-family="'Cabin-Bold'" font-size="8">09’</text>
		</g>
	</g>
	<g id="Shaved_Head">
		<g>
			
				<line fill="none" stroke="#414042" stroke-linecap="round" stroke-miterlimit="10" stroke-dasharray="2,3,2,3,2,3" x1="241.8" y1="260.6" x2="275.1" y2="260.6"/>
		</g>
		<g>
			<rect x="279.6" y="253.6" fill="none" width="104.3" height="13.4"/>
			<text transform="matrix(1 0 0 1 279.575 264.0988)" fill="#4ABC94" font-family="'Cabin-Medium'" font-size="14">Shaved My Head</text>
			<rect x="279.6" y="270" fill="none" width="89.2" height="6.7"/>
			<text transform="matrix(1 0 0 1 279.5747 275.2941)" fill="#414042" font-family="'Arvo'" font-size="7">Raising £900+</text>
			<rect x="279.6" y="279.9" fill="none" width="35.9" height="20.2"/>
			<text transform="matrix(1 0 0 1 279.575 285.92)" fill="#414042" font-family="'Cabin-Bold'" font-size="8">09’</text>
		</g>
		<g>
			<g>
				<g>
					<path fill="#4ABC94" d="M241.8,274.6c-7.7,0-14-6.3-14-14c0-7.7,6.3-14,14-14c7.7,0,14,6.3,14,14
						C255.8,268.3,249.5,274.6,241.8,274.6z"/>
				</g>
				<g>
					<g>
						<path fill="#FFFFFF" d="M241.8,247.6c7.2,0,13,5.8,13,13c0,7.2-5.8,13-13,13c-7.2,0-13-5.8-13-13
							C228.8,253.4,234.6,247.6,241.8,247.6 M241.8,245.5c-8.3,0-15.1,6.8-15.1,15.1c0,8.3,6.8,15.1,15.1,15.1
							c8.3,0,15.1-6.8,15.1-15.1C256.9,252.3,250.1,245.5,241.8,245.5L241.8,245.5z"/>
					</g>
				</g>
			</g>
			<g>
				<defs>
					<circle id="SVGID_49_" cx="241.8" cy="260.6" r="13"/>
				</defs>
				<clipPath id="SVGID_14_">
					<use xlink:href="#SVGID_49_"  overflow="visible"/>
				</clipPath>
				<g clip-path="url(#SVGID_14_)">
					<g>
						<path fill="#F1F2F2" d="M248.4,268.9h-26.1c-0.4,0-0.7-0.4-0.7-0.8v-14.7c0-0.4,0.3-0.8,0.7-0.8h26.1c0.4,0,0.7,0.4,0.7,0.8
							v14.7C249.2,268.5,248.8,268.9,248.4,268.9z M222.3,252.9c-0.2,0-0.4,0.2-0.4,0.4v14.7c0,0.2,0.2,0.4,0.4,0.4h26.1
							c0.2,0,0.4-0.2,0.4-0.4v-14.7c0-0.2-0.2-0.4-0.4-0.4H222.3z"/>
					</g>
					<g>
						<ellipse fill-rule="evenodd" clip-rule="evenodd" fill="#F1F2F2" cx="235.4" cy="260.7" rx="4.8" ry="6.1"/>
					</g>
					<g>
						<path fill="#4ABC94" d="M233.4,263.4c0.5-0.9,0.5-1.7,0.4-2.4h-0.4c-0.1,0-0.2-0.1-0.2-0.2v-0.1c0-0.1,0.1-0.2,0.2-0.2h0.3
							c-0.1-0.3-0.3-0.9-0.3-1.5c0-1.2,0.9-2,2-2c0.8,0,1.3,0.5,1.6,0.7c0.1,0.1,0.1,0.2,0,0.2l-0.3,0.4c-0.1,0.1-0.2,0.1-0.3,0
							c0,0-0.5-0.5-1-0.5c-0.6,0-1,0.4-1,1.1c0,0.6,0.3,1.2,0.3,1.5h1.3c0.1,0,0.2,0.1,0.2,0.2v0.1c0,0.1-0.1,0.2-0.2,0.2h-1.2
							c0.1,0.5,0.1,1.3-0.2,1.9h2.1c0.1,0,0.2,0.1,0.2,0.2v0.5c0,0.1-0.1,0.2-0.2,0.2h-3c-0.1,0-0.2-0.1-0.2-0.2V263.4z"/>
					</g>
				</g>
			</g>
		</g>
	</g>
	<g id="A_Level">
		<g>
			
				<line fill="none" stroke="#414042" stroke-linecap="round" stroke-miterlimit="10" stroke-dasharray="2,3,2,3,2,3" x1="208.3" y1="205" x2="241.8" y2="205"/>
		</g>
		<g>
			<g>
				<rect x="118.9" y="198.1" fill="none" width="84.9" height="13.4"/>
				<text transform="matrix(1 0 0 1 159.0359 208.6075)" fill="#993680" font-family="'Cabin-Medium'" font-size="14">A-level</text>
				<rect x="114.5" y="214.5" fill="none" width="89.2" height="15.9"/>
				<text transform="matrix(1 0 0 1 150.3514 219.8029)"><tspan x="0" y="0" fill="#414042" font-family="'Arvo'" font-size="7">Product design, </tspan><tspan x="-6.8" y="8.4" fill="#414042" font-family="'Arvo'" font-size="7">Photography, Art.</tspan></text>
				<rect x="167.9" y="233.3" fill="none" width="35.9" height="20.2"/>
				<text transform="matrix(1 0 0 1 179.1944 239.3458)" fill="#414042" font-family="'Cabin-Bold'" font-size="8">08’- 11’</text>
			</g>
		</g>
		<g>
			<g>
				<g>
					<path fill="#993680" d="M242.1,219.3c-7.9,0-14.3-6.4-14.3-14.3c0-7.9,6.4-14.3,14.3-14.3c7.9,0,14.3,6.4,14.3,14.3
						C256.4,212.9,250,219.3,242.1,219.3z"/>
				</g>
				<g>
					<path fill="#FFFFFF" d="M242.1,191.7c7.3,0,13.3,5.9,13.3,13.3c0,7.3-5.9,13.3-13.3,13.3c-7.3,0-13.3-5.9-13.3-13.3
						C228.8,197.7,234.7,191.7,242.1,191.7 M242.1,189.6c-8.5,0-15.4,6.9-15.4,15.4c0,8.5,6.9,15.4,15.4,15.4
						c8.5,0,15.4-6.9,15.4-15.4C257.5,196.5,250.6,189.6,242.1,189.6L242.1,189.6z"/>
				</g>
			</g>
			<g>
				<g>
					<path fill="#F1F2F2" d="M242.1,211.9c-3.6,0-6.7-1.9-6.7-3.5V203c0-0.2,0.2-0.4,0.4-0.4h12.6c0.2,0,0.4,0.2,0.4,0.4v5.3
						C248.8,210,245.7,211.9,242.1,211.9z M236.2,203.4v4.9c0,0.9,2.5,2.7,5.9,2.7c3.4,0,5.9-1.8,5.9-2.7v-4.9H236.2z"/>
				</g>
				<g>
					<line fill="#BA1D80" x1="234.5" y1="201.4" x2="234.5" y2="208.3"/>
					<path fill="#F1F2F2" d="M234.5,208.6c-0.2,0-0.3-0.1-0.3-0.3v-6.9c0-0.2,0.1-0.3,0.3-0.3c0.2,0,0.3,0.1,0.3,0.3v6.9
						C234.8,208.5,234.7,208.6,234.5,208.6z"/>
				</g>
				<g>
					<polygon fill="#993680" points="242.1,206.9 231.7,201.9 242.1,198.5 252.5,201.9 					"/>
					<path fill="#F1F2F2" d="M242.1,207.3c-0.1,0-0.1,0-0.2,0l-10.4-5c-0.1-0.1-0.2-0.2-0.2-0.4c0-0.2,0.1-0.3,0.3-0.4l10.4-3.4
						c0.1,0,0.2,0,0.2,0l10.4,3.4c0.2,0,0.3,0.2,0.3,0.4c0,0.2-0.1,0.3-0.2,0.4l-10.4,5C242.2,207.3,242.1,207.3,242.1,207.3z
						 M232.7,202l9.3,4.5l9.3-4.5l-9.3-3L232.7,202z"/>
				</g>
				<g>
					<line fill="#BA1D80" x1="241.9" y1="201.9" x2="234.5" y2="200.7"/>
					<path fill="#F1F2F2" d="M241.9,202.3C241.9,202.3,241.9,202.3,241.9,202.3l-7.5-1.2c-0.2,0-0.4-0.2-0.3-0.5
						c0-0.2,0.2-0.4,0.5-0.3l7.5,1.2c0.2,0,0.4,0.2,0.3,0.5C242.3,202.2,242.1,202.3,241.9,202.3z"/>
				</g>
			</g>
		</g>
	</g>
	<g id="Soup_Dragon">
		<g>
			
				<line fill="none" stroke="#414042" stroke-linecap="round" stroke-miterlimit="10" stroke-dasharray="2,3,2,3,2,3" x1="241.8" y1="149" x2="275.1" y2="149"/>
		</g>
		<g>
			<rect x="279.6" y="141.9" fill="none" width="84.9" height="13.4"/>
			<text transform="matrix(1 0 0 1 279.5754 152.3679)" fill="#4ABC94" font-family="'Cabin-Medium'" font-size="14">Soup Dragon</text>
			<rect x="279.6" y="158.2" fill="none" width="89.2" height="15.9"/>
			<text transform="matrix(1 0 0 1 279.5746 163.5632)"><tspan x="0" y="0" fill="#58595B" font-family="'Arvo'" font-size="7">Traditional childrens  toy </tspan><tspan x="0" y="8.4" fill="#58595B" font-family="'Arvo'" font-size="7">shop. (Part Time) </tspan></text>
			<rect x="279.6" y="177.1" fill="none" width="35.9" height="20.2"/>
			<text transform="matrix(1 0 0 1 279.5748 183.1071)" fill="#414042" font-family="'Cabin-Bold'" font-size="8">05’- 11’</text>
		</g>
		<g>
			<g>
				<g>
					<path fill="#4ABC94" d="M241.7,163.1c-7.7,0-14-6.3-14-14s6.3-14,14-14c7.7,0,14,6.3,14,14S249.4,163.1,241.7,163.1z"/>
				</g>
				<g>
					<g>
						<path fill="#FFFFFF" d="M241.7,136.1c7.2,0,13,5.8,13,13c0,7.2-5.8,13-13,13c-7.2,0-13-5.8-13-13
							C228.7,141.9,234.5,136.1,241.7,136.1 M241.7,133.9c-8.3,0-15.1,6.8-15.1,15.1c0,8.3,6.8,15.1,15.1,15.1
							c8.3,0,15.1-6.8,15.1-15.1C256.8,140.7,250,133.9,241.7,133.9L241.7,133.9z"/>
					</g>
				</g>
			</g>
			<g>
				<defs>
					<circle id="SVGID_51_" cx="241.7" cy="149" r="13"/>
				</defs>
				<clipPath id="SVGID_16_">
					<use xlink:href="#SVGID_51_"  overflow="visible"/>
				</clipPath>
				<g clip-path="url(#SVGID_16_)">
					<g>
						<path fill="#F1F2F2" d="M248.3,157.3h-26.1c-0.4,0-0.7-0.4-0.7-0.8v-14.7c0-0.4,0.3-0.8,0.7-0.8h26.1c0.4,0,0.7,0.4,0.7,0.8
							v14.7C249,157,248.7,157.3,248.3,157.3z M222.2,141.4c-0.2,0-0.4,0.2-0.4,0.4v14.7c0,0.2,0.2,0.4,0.4,0.4h26.1
							c0.2,0,0.4-0.2,0.4-0.4v-14.7c0-0.2-0.2-0.4-0.4-0.4H222.2z"/>
					</g>
					<g>
						<ellipse fill-rule="evenodd" clip-rule="evenodd" fill="#F1F2F2" cx="235.3" cy="149.1" rx="4.8" ry="6.1"/>
					</g>
					<g>
						<path fill="#4ABC94" d="M233.3,151.9c0.5-0.9,0.5-1.7,0.4-2.4h-0.4c-0.1,0-0.2-0.1-0.2-0.2v-0.1c0-0.1,0.1-0.2,0.2-0.2h0.3
							c-0.1-0.3-0.3-0.9-0.3-1.5c0-1.2,0.9-2,2-2c0.8,0,1.3,0.5,1.6,0.7c0.1,0.1,0.1,0.2,0,0.2l-0.3,0.4c-0.1,0.1-0.2,0.1-0.3,0
							c0,0-0.5-0.5-1-0.5c-0.6,0-1,0.4-1,1.1c0,0.6,0.3,1.2,0.3,1.5h1.3c0.1,0,0.2,0.1,0.2,0.2v0.1c0,0.1-0.1,0.2-0.2,0.2h-1.2
							c0.1,0.5,0.1,1.3-0.2,1.9h2.1c0.1,0,0.2,0.1,0.2,0.2v0.5c0,0.1-0.1,0.2-0.2,0.2h-3c-0.1,0-0.2-0.1-0.2-0.2V151.9z"/>
					</g>
				</g>
			</g>
		</g>
	</g>
	<g id="GCSE">
		<g>
			
				<line fill="none" stroke="#414042" stroke-linecap="round" stroke-miterlimit="10" stroke-dasharray="2,3,2,3,2,3" x1="208.3" y1="93.3" x2="241.8" y2="93.3"/>
		</g>
		<g>
			<rect x="118.9" y="87.4" fill="none" width="84.9" height="13.4"/>
			<text transform="matrix(1 0 0 1 167.7995 97.9252)" fill="#993680" font-family="'Cabin-Medium'" font-size="14">GCSE</text>
			<rect x="96.2" y="103.8" fill="none" width="107.5" height="15.9"/>
			<text transform="matrix(1 0 0 1 109.715 109.1205)"><tspan x="0" y="0" fill="#414042" font-family="'Arvo'" font-size="7">Standard Subjects + Drama, </tspan><tspan x="-2.6" y="8.4" fill="#414042" font-family="'Arvo'" font-size="7">Product Design, Art, French.</tspan></text>
			<rect x="167.9" y="122.7" fill="none" width="35.9" height="20.2"/>
			<text transform="matrix(1 0 0 1 174.8008 128.6644)" fill="#414042" font-family="'Cabin-Bold'" font-size="8">04’- 08’</text>
		</g>
		<g>
			<g>
				<g>
					<path fill="#993680" d="M241.8,107.7c-7.9,0-14.3-6.4-14.3-14.3c0-7.9,6.4-14.3,14.3-14.3c7.9,0,14.3,6.4,14.3,14.3
						C256.1,101.2,249.7,107.7,241.8,107.7z"/>
				</g>
				<g>
					<path fill="#FFFFFF" d="M241.8,80c7.3,0,13.3,5.9,13.3,13.3c0,7.3-5.9,13.3-13.3,13.3c-7.3,0-13.3-5.9-13.3-13.3
						C228.5,86,234.5,80,241.8,80 M241.8,77.9c-8.5,0-15.4,6.9-15.4,15.4c0,8.5,6.9,15.4,15.4,15.4c8.5,0,15.4-6.9,15.4-15.4
						C257.2,84.8,250.3,77.9,241.8,77.9L241.8,77.9z"/>
				</g>
			</g>
			<g>
				<g>
					<path fill="#F1F2F2" d="M241.8,100.2c-3.6,0-6.7-1.9-6.7-3.5v-5.3c0-0.2,0.2-0.4,0.4-0.4h12.6c0.2,0,0.4,0.2,0.4,0.4v5.3
						C248.5,98.3,245.4,100.2,241.8,100.2z M235.9,91.7v4.9c0,0.9,2.5,2.7,5.9,2.7c3.4,0,5.9-1.8,5.9-2.7v-4.9H235.9z"/>
				</g>
				<g>
					<line fill="#BA1D80" x1="234.2" y1="89.7" x2="234.2" y2="96.6"/>
					<path fill="#F1F2F2" d="M234.2,96.9c-0.2,0-0.3-0.1-0.3-0.3v-6.9c0-0.2,0.1-0.3,0.3-0.3c0.2,0,0.3,0.1,0.3,0.3v6.9
						C234.5,96.8,234.4,96.9,234.2,96.9z"/>
				</g>
				<g>
					<polygon fill="#993680" points="241.8,95.2 231.4,90.2 241.8,86.8 252.2,90.2 					"/>
					<path fill="#F1F2F2" d="M241.8,95.6c-0.1,0-0.1,0-0.2,0l-10.4-5c-0.1-0.1-0.2-0.2-0.2-0.4c0-0.2,0.1-0.3,0.3-0.4l10.4-3.4
						c0.1,0,0.2,0,0.2,0l10.4,3.4c0.2,0,0.3,0.2,0.3,0.4c0,0.2-0.1,0.3-0.2,0.4l-10.4,5C241.9,95.6,241.9,95.6,241.8,95.6z
						 M232.5,90.3l9.3,4.5l9.3-4.5l-9.3-3L232.5,90.3z"/>
				</g>
				<g>
					<line fill="#BA1D80" x1="241.7" y1="90.3" x2="234.2" y2="89"/>
					<path fill="#F1F2F2" d="M241.7,90.7C241.7,90.7,241.6,90.7,241.7,90.7l-7.5-1.2c-0.2,0-0.4-0.2-0.3-0.5c0-0.2,0.2-0.4,0.5-0.3
						l7.5,1.2c0.2,0,0.4,0.2,0.3,0.5C242,90.5,241.9,90.7,241.7,90.7z"/>
				</g>
			</g>
		</g>
	</g>
	<g id="Toy_Shop">
		<g>
			
				<line fill="none" stroke="#414042" stroke-linecap="round" stroke-miterlimit="10" stroke-dasharray="2,3,2,3,2,3" x1="241.8" y1="37.8" x2="275.1" y2="37.8"/>
		</g>
		<g>
			<rect x="279.6" y="30.8" fill="none" width="129.8" height="13.4"/>
			<text transform="matrix(1 0 0 1 279.5698 41.2589)" fill="#4CBAC5" font-family="'Cabin-Medium'" font-size="14">Born into a Toy Shop</text>
			<rect x="279.6" y="54.6" fill="none" width="35.9" height="20.2"/>
			<text transform="matrix(1 0 0 1 279.5702 60.6285)" fill="#414042" font-family="'Cabin-Bold'" font-size="8">92’</text>
			<rect x="279.5" y="46.6" fill="none" width="107.5" height="7.9"/>
			<text transform="matrix(1 0 0 1 279.5477 51.9028)" fill="#414042" font-family="'Arvo'" font-size="7">&amp; lived above it most of my life</text>
		</g>
		<g>
			<g>
				<g>
					<path fill="#4CBAC5" d="M242,51.6c-7.8,0-14.1-6.3-14.1-14.1c0-7.8,6.3-14.1,14.1-14.1c7.8,0,14.1,6.3,14.1,14.1
						C256.1,45.2,249.8,51.6,242,51.6z"/>
				</g>
				<g>
					<g>
						<path fill="#FFFFFF" d="M242,24.3c7.2,0,13.1,5.9,13.1,13.1c0,7.2-5.9,13.1-13.1,13.1c-7.2,0-13.1-5.9-13.1-13.1
							C228.9,30.2,234.7,24.3,242,24.3 M242,22.3c-8.4,0-15.2,6.8-15.2,15.2c0,8.4,6.8,15.2,15.2,15.2c8.4,0,15.2-6.8,15.2-15.2
							C257.2,29.1,250.3,22.3,242,22.3L242,22.3z"/>
					</g>
				</g>
			</g>
			<g>
				<defs>
					<circle id="SVGID_53_" cx="242" cy="37.4" r="13.1"/>
				</defs>
				<clipPath id="SVGID_18_">
					<use xlink:href="#SVGID_53_"  overflow="visible"/>
				</clipPath>
				<g clip-path="url(#SVGID_18_)">
					<g>
						<path fill="#F1F2F2" d="M244.5,38.2h-5c-0.6,0-1.2-0.5-1.2-1.2v-2.8c0-0.6,0.5-1.2,1.2-1.2h5c0.6,0,1.2,0.5,1.2,1.2v2.8
							C245.6,37.7,245.1,38.2,244.5,38.2z M239.5,33.9c-0.2,0-0.4,0.2-0.4,0.4v2.8c0,0.2,0.2,0.4,0.4,0.4h5c0.2,0,0.4-0.2,0.4-0.4
							v-2.8c0-0.2-0.2-0.4-0.4-0.4H239.5z"/>
					</g>
					<g>
						<path fill-rule="evenodd" clip-rule="evenodd" fill="#4CBAC5" d="M252.8,49.7c0,0.8-0.6,1.4-1.4,1.4h-18.8
							c-0.8,0-1.4-0.6-1.4-1.4V37.1c0-0.8,0.6-1.4,1.4-1.4h18.8c0.8,0,1.4,0.6,1.4,1.4V49.7z"/>
						<path fill="#F1F2F2" d="M251.4,51.3h-18.8c-0.9,0-1.7-0.8-1.7-1.7V37.1c0-0.9,0.8-1.7,1.7-1.7h18.8c0.9,0,1.7,0.8,1.7,1.7
							v12.6C253.1,50.6,252.3,51.3,251.4,51.3z M232.6,35.9c-0.6,0-1.2,0.5-1.2,1.2v12.6c0,0.6,0.5,1.2,1.2,1.2h18.8
							c0.6,0,1.2-0.5,1.2-1.2V37.1c0-0.6-0.5-1.2-1.2-1.2H232.6z"/>
					</g>
					<g>
						<line fill="#6DB6D5" x1="231.1" y1="39.7" x2="252.8" y2="39.7"/>
						<rect x="231.1" y="39.5" fill="#F1F2F2" width="21.6" height="0.5"/>
					</g>
					<g>
						<path fill="#F1F2F2" d="M244.4,40.5c0,0.2-0.2,0.4-0.4,0.4h-4c-0.2,0-0.4-0.2-0.4-0.4V39c0-0.2,0.2-0.4,0.4-0.4h4
							c0.2,0,0.4,0.2,0.4,0.4V40.5z"/>
					</g>
				</g>
			</g>
		</g>
	</g>
	<g id="Roaming" display="none">
		<g display="inline">
			
				<line fill="none" stroke="#414042" stroke-linecap="round" stroke-miterlimit="10" stroke-dasharray="2,3,2,3,2,3" x1="251.4" y1="461.8" x2="335.3" y2="462"/>
		</g>
		<g display="inline">
			<path fill="#8DC63F" d="M241.8,466.5c-4.3,0-7.7-3.5-7.7-7.7s3.5-7.7,7.7-7.7s7.7,3.5,7.7,7.7S246.1,466.5,241.8,466.5z"/>
			<g>
				<path fill="#FFFFFF" d="M241.8,452.5c3.5,0,6.3,2.8,6.3,6.3s-2.8,6.3-6.3,6.3c-3.5,0-6.3-2.8-6.3-6.3S238.3,452.5,241.8,452.5
					 M241.8,449.6c-5,0-9.2,4.1-9.2,9.2c0,5,4.1,9.1,9.2,9.1c5,0,9.1-4.1,9.1-9.1C251,453.7,246.9,449.6,241.8,449.6L241.8,449.6z"
					/>
			</g>
		</g>
		<g display="inline">
			<g>
				<path fill="#4ABC94" d="M227.8,462c0-7.7,6.3-14,14-14c7.7,0,14,6.3,14,14c0,7.7-6.3,14-14,14C234.1,476,227.8,469.7,227.8,462z
					"/>
			</g>
			<g>
				<g>
					<path fill="#FFFFFF" d="M254.8,462c0,7.2-5.8,13-13,13c-7.2,0-13-5.8-13-13s5.8-13,13-13C249,449.1,254.8,454.9,254.8,462
						 M256.9,462c0-8.3-6.8-15.1-15.1-15.1c-8.3,0-15.1,6.8-15.1,15.1c0,8.3,6.8,15.1,15.1,15.1C250.1,477.1,256.9,470.3,256.9,462
						L256.9,462z"/>
				</g>
			</g>
		</g>
		<rect x="308.2" y="466.5" display="inline" fill="none" width="25.9" height="84.9"/>
		<text transform="matrix(0 1 -1 0 323.526 466.515)" display="inline"><tspan x="0" y="0" fill="#4ABC94" font-family="'Cabin-Medium'" font-size="14">Roaming </tspan><tspan x="0" y="13" fill="#4ABC94" font-family="'Cabin-Medium'" font-size="14">Rotisserie</tspan></text>
		<rect x="289.3" y="466.5" display="inline" fill="none" width="15.9" height="89.2"/>
		<text transform="matrix(0 1 -1 0 299.8375 466.5153)" display="inline"><tspan x="0" y="0" fill="#414042" font-family="'Arvo'" font-size="7">Skewering &amp; Serving </tspan><tspan x="0" y="8.4" fill="#414042" font-family="'Arvo'" font-size="7">Chickens.</tspan></text>
		<rect x="266.1" y="466.5" display="inline" fill="none" width="20.2" height="35.9"/>
		<text transform="matrix(0 1 -1 0 280.2926 466.5145)" display="inline" fill="#414042" font-family="'Cabin-Bold'" font-size="8">10’</text>
		<g display="inline">
			<defs>
				<circle id="SVGID_55_" cx="241.8" cy="462" r="13"/>
			</defs>
			<clipPath id="SVGID_20_">
				<use xlink:href="#SVGID_55_"  overflow="visible"/>
			</clipPath>
			<g clip-path="url(#SVGID_20_)">
				<g>
					<path fill="#F1F2F2" d="M233.5,468.6v-26.1c0-0.4,0.4-0.7,0.8-0.7H249c0.4,0,0.8,0.3,0.8,0.7v26.1c0,0.4-0.4,0.7-0.8,0.7h-14.7
						C233.9,469.4,233.5,469,233.5,468.6z M249.5,442.5c0-0.2-0.2-0.4-0.4-0.4h-14.7c-0.2,0-0.4,0.2-0.4,0.4v26.1
						c0,0.2,0.2,0.4,0.4,0.4H249c0.2,0,0.4-0.2,0.4-0.4V442.5z"/>
				</g>
				<g>
					<ellipse fill-rule="evenodd" clip-rule="evenodd" fill="#F1F2F2" cx="241.7" cy="455.6" rx="6.1" ry="4.8"/>
				</g>
				<g>
					<path fill="#4ABC94" d="M239,453.6c0.9,0.5,1.7,0.5,2.4,0.4v-0.4c0-0.1,0.1-0.2,0.2-0.2h0.1c0.1,0,0.2,0.1,0.2,0.2v0.3
						c0.3-0.1,0.9-0.3,1.5-0.3c1.2,0,2,0.9,2,2c0,0.8-0.5,1.3-0.7,1.6c-0.1,0.1-0.2,0.1-0.2,0l-0.4-0.3c-0.1-0.1-0.1-0.2,0-0.3
						c0,0,0.5-0.5,0.5-1c0-0.6-0.4-1-1.1-1c-0.6,0-1.2,0.3-1.5,0.3v1.3c0,0.1-0.1,0.2-0.2,0.2h-0.1c-0.1,0-0.2-0.1-0.2-0.2v-1.2
						c-0.5,0.1-1.3,0.1-1.9-0.2v2.1c0,0.1-0.1,0.2-0.2,0.2h-0.5c-0.1,0-0.2-0.1-0.2-0.2v-3c0-0.1,0.1-0.2,0.2-0.2H239z"/>
				</g>
			</g>
		</g>
	</g>
</g>
<g id="Template_1_">
</g>
<g id="iPhone">
</g>
</svg>
